<svg width="180" height="180" viewBox="0 0 180 180" fill="none" xmlns="http://www.w3.org/2000/svg">
<rect width="180" height="180" rx="31" fill="white"/>
<circle cx="89.5" cy="90.5" r="82.5" fill="#FF0000"/>
<path d="M54.7272 119.6C45.2072 119.6 36.9272 117.88 29.8872 114.44C22.8472 110.92 17.4472 105.96 13.6872 99.56C9.92719 93.16 8.04719 85.72 8.04719 77.24C8.04719 65.48 10.2472 55.04 14.6472 45.92C19.1272 36.8 25.1672 29.76 32.7672 24.8C40.3672 19.76 48.8072 17.24 58.0872 17.24C66.7272 17.24 73.2872 19.48 77.7672 23.96C82.2472 28.36 84.4872 34.2 84.4872 41.48C84.4872 46.36 83.6072 50.28 81.8472 53.24C80.1672 56.2 77.7272 57.68 74.5272 57.68C72.2872 57.68 70.5272 57.16 69.2472 56.12C67.9672 55.08 67.3272 53.56 67.3272 51.56C67.3272 50.84 67.4872 49.52 67.8072 47.6C68.2872 45.2 68.5272 43.28 68.5272 41.84C68.5272 34.56 64.6472 30.92 56.8872 30.92C51.6072 30.92 46.5672 32.64 41.7672 36.08C36.9672 39.52 33.0872 44.6 30.1272 51.32C27.1672 57.96 25.6872 65.88 25.6872 75.08C25.6872 84.68 28.3672 92.12 33.7272 97.4C39.0872 102.6 47.0072 105.2 57.4872 105.2C62.6872 105.2 67.9272 104.56 73.2072 103.28C78.5672 101.92 84.4872 99.88 90.9672 97.16C92.1672 96.68 93.1672 96.44 93.9672 96.44C95.2472 96.44 96.2072 96.92 96.8472 97.88C97.4872 98.84 97.8072 100.08 97.8072 101.6C97.8072 106.48 95.1672 110.08 89.8872 112.4C84.2072 114.88 78.2872 116.72 72.1272 117.92C66.0472 119.04 60.2472 119.6 54.7272 119.6Z" fill="white"/>
<path d="M174.185 81.52C174.185 88.8867 172.279 95.6467 168.465 101.8C164.652 107.953 159.105 112.98 151.825 116.88C144.545 120.78 135.879 123.077 125.825 123.77L120.235 155.1C118.069 167.147 112.175 173.17 102.555 173.17C97.2686 173.17 92.372 171.61 87.8653 168.49C83.4453 165.37 79.892 160.603 77.2053 154.19C74.5186 147.777 73.1753 139.89 73.1753 130.53C73.1753 112.937 75.992 98.03 81.6253 85.81C87.3453 73.5033 94.972 64.3167 104.505 58.25C114.125 52.0967 124.699 49.02 136.225 49.02C144.372 49.02 151.262 50.45 156.895 53.31C162.615 56.17 166.905 60.07 169.765 65.01C172.712 69.8633 174.185 75.3667 174.185 81.52ZM128.165 110.38C145.932 108.127 154.815 98.8967 154.815 82.69C154.815 76.97 152.909 72.3333 149.095 68.78C145.369 65.14 139.562 63.32 131.675 63.32C122.749 63.32 114.949 66.1367 108.275 71.77C101.689 77.4033 96.5753 85.2467 92.9353 95.3C89.382 105.267 87.6053 116.663 87.6053 129.49C87.6053 134.863 88.1253 139.63 89.1653 143.79C90.292 147.95 91.6786 151.2 93.3253 153.54C95.0586 155.793 96.7053 156.92 98.2653 156.92C100.432 156.92 102.079 153.93 103.205 147.95L107.495 123.38C104.115 122.86 102.642 122.643 103.075 122.73C100.475 122.297 98.7853 121.517 98.0053 120.39C97.2253 119.177 96.8353 117.66 96.8353 115.84C96.8353 113.933 97.3553 112.417 98.3953 111.29C99.522 110.163 101.039 109.6 102.945 109.6C103.812 109.6 104.462 109.643 104.895 109.73C106.975 110.077 108.579 110.293 109.705 110.38C110.832 103.62 112.435 94.5633 114.515 83.21C115.035 80.2633 116.205 78.1833 118.025 76.97C119.932 75.67 122.142 75.02 124.655 75.02C127.515 75.02 129.552 75.5833 130.765 76.71C132.065 77.75 132.715 79.44 132.715 81.78C132.715 83.1667 132.629 84.2933 132.455 85.16L128.165 110.38Z" fill="white"/>
</svg>
