<?xml version="1.0" encoding="utf-8" ?><svg xmlns="http://www.w3.org/2000/svg" xmlns:xlink="http://www.w3.org/1999/xlink" width="1648" height="824" viewBox="0 0 1648 824"><path fill="#864999" transform="matrix(0.804688 0 0 0.804688 0.00012207 0)" d="M1139.23 446.403C1171.46 444.059 1228.06 459.21 1233.84 497.404C1243.84 563.499 1144.33 580.539 1099.41 558.951C1095.28 556.965 1087.37 551.408 1083.14 552.117L1082.89 554.75L1083.12 613.722C1070.71 613.914 1058.37 613.824 1045.95 613.752L1045.02 448.384C1056.05 447.88 1068.63 448.216 1079.78 448.266C1079.72 454.259 1079.89 460.582 1079.97 466.604C1102.18 452.278 1112.83 448.683 1139.23 446.403ZM1083.29 526.924C1100.86 545.799 1128.48 551.285 1153.21 546.882C1168.45 543.705 1183.84 537.107 1192.92 523.943C1204.87 506.601 1195.14 485.795 1178.71 475.749C1163.44 466.417 1145.2 463.841 1127.69 465.371C1084.48 470.587 1076.75 484.359 1083.29 526.924Z"/><path fill="#864999" transform="matrix(0.804688 0 0 0.804688 0.00012207 0)" d="M1706.21 447.408C1738.71 446.295 1783.63 457.841 1795.62 492.615C1806.65 524.599 1779.35 551.944 1750.45 560.146C1712.46 570.925 1681.19 567.642 1646.41 549.222L1646.38 557.75C1646.44 576.505 1646.62 594.697 1647.18 613.468C1635.58 613.618 1623.78 613.531 1612.17 613.558L1611.94 449.665C1623.22 449.284 1635.81 449.472 1647.19 449.419L1646.38 469.316C1667.72 454.05 1679.76 449.443 1706.21 447.408ZM1713.23 546.823C1729.25 544.255 1743.56 540.519 1753.77 526.691C1765.76 510.456 1759.18 489.366 1743.3 478.703C1728.17 468.543 1709.24 466.118 1691.5 467.36C1666.16 470.161 1641.63 480.307 1644.56 511.106C1647.8 545.086 1685.91 549.755 1713.23 546.823Z"/><path fill="#5B1977" transform="matrix(0.804688 0 0 0.804688 0.00012207 0)" d="M557.742 446.484C579.42 446.469 609.208 448.529 626.101 464.117C638.157 475.242 635.979 496.512 636.015 511.626C636.055 528.6 635.91 545.753 635.832 562.786L603.889 562.866L603.838 550.126C573.311 571.08 501.03 574.04 471.995 546.97C461.249 536.951 465.095 523.618 475.212 514.2C498.579 497.162 534.071 499.586 561.358 498.609C574.722 498.131 589.529 496.571 602.942 495.38C602.666 474.632 592.033 466.461 571.667 463.977C539.887 460.102 519.931 464.95 494.525 484.184C486.328 480.558 477.593 476.05 469.491 472.073C496.881 450.787 524.36 447.799 557.742 446.484ZM522.323 548.804C546.727 553.59 596.54 556.28 602.402 523.86C603.183 519.544 603.385 513.008 603.639 508.489C596.798 508.834 589.308 509.049 582.538 509.572C568.388 510.457 553.396 510.028 539.42 511.967C528.219 513.521 499.912 516.778 501.078 532.468C501.781 541.944 514.776 546.563 522.323 548.804Z"/><path fill="#864999" transform="matrix(0.804688 0 0 0.804688 0.00012207 0)" d="M1488.97 448.495C1513.6 449.247 1543.11 453.522 1563.26 469.151C1577.37 480.104 1580.43 494.176 1582.43 510.677C1529.42 511.651 1475.4 510.617 1422.23 511.084C1443.72 555.938 1496.31 554.952 1537.73 542.048C1542.7 540.422 1548.91 537.609 1553.83 535.546C1561.15 539.079 1569.06 543.665 1576.24 547.635C1549.84 559.096 1533.87 564.805 1503.82 566.002C1469.76 567.334 1431.84 562.553 1405.39 539.032C1393.44 528.41 1385.82 512.174 1392.04 496.376C1407.08 458.165 1452.69 449.495 1488.97 448.495ZM1422.33 498.328C1443.75 498.83 1468.82 498.927 1490.25 498.475C1509.42 498.555 1534.14 499.305 1552.86 498.564C1537.09 471.718 1514.56 466.327 1485.2 466.417C1456.36 468.802 1438.73 473.035 1422.33 498.328Z"/><path fill="#5B1977" transform="matrix(0.804688 0 0 0.804688 0.00012207 0)" d="M177.308 438.105C172.313 438.04 162.625 438.835 159.288 434.874C162.865 431.176 172.912 431.977 177.882 431.999L184.285 432.334C189.967 432.226 199.336 431.3 203.751 434.668L203.292 436.045C198.094 438.404 189.044 438.19 183.478 437.261C179.763 439.147 181.405 438.92 177.308 438.105Z"/><path fill="#5B1977" fill-opacity="0.93725491" transform="matrix(0.804688 0 0 0.804688 0.00012207 0)" d="M177.308 438.105C181.405 438.92 179.763 439.147 183.478 437.261C183.812 442.589 185.043 456.931 180.991 460.587L179.574 459.306C176.649 451.101 177.395 446.862 177.308 438.105Z"/><path fill="#5B1977" fill-opacity="0.90588236" transform="matrix(0.804688 0 0 0.804688 0.00012207 0)" d="M177.882 431.999C177.768 426.677 176.533 416.139 180.789 412.51C185.375 416.028 184.266 426.766 184.285 432.334L177.882 431.999Z"/><path fill="#5B1977" transform="matrix(0.804688 0 0 0.804688 0.00012207 0)" d="M843.533 446.407C869.697 442.61 906.795 449.937 929.068 465.377C921.923 469.576 914.853 473.949 907.784 478.278C884.382 464.127 863.663 461.365 836.072 466.254C796.459 473.272 778.78 515.385 817.363 538.967C837.281 551.14 867.149 549.533 889.602 543.562C896.569 541.513 900.278 539.463 906.753 536.151C913.721 540.36 921.234 543.854 928.566 547.414C886.9 575.175 818.653 573.753 778.154 543.718C756.41 527.591 752.712 496.928 769.988 476.145C787.498 455.081 817.672 449.005 843.533 446.407Z"/><path fill="#5B1977" transform="matrix(0.804688 0 0 0.804688 0.00012207 0)" d="M367.579 447.448C395.027 445.556 418.155 451.522 442.303 463.872C438.76 467.216 426.542 475.425 421.988 478.635C395.938 463.784 366.751 462.199 338.557 472.491C300.818 486.268 305.528 530.897 341.591 543.948C367.507 553.326 387.625 551.722 412.765 540.956L421.963 535.769L444.016 548.476C403.192 574.806 341.301 574.881 300.558 548.187C277.089 532.81 266.631 500.729 287.184 478.245C308.442 454.991 337.526 449.387 367.579 447.448Z"/><path fill="#5B1977" transform="matrix(0.804688 0 0 0.804688 0.00012207 0)" d="M216.124 322.304C226.349 320.463 233.868 319.067 243.948 316.182C243.944 321.293 244.633 337.547 242.383 340.669C239.763 339.494 238.559 338.241 236.448 336.377L233.382 336.814C229.215 341.452 230.635 349.628 229.759 356.53C229.513 352.761 229.851 348.008 227.503 345.617C226.898 345.789 225.322 346.18 224.861 346.442L131.43 430.938C116.922 444.262 97.9212 460.156 85.1424 474.47C91.1755 475.783 255.957 475.76 259.912 474.469C261.268 470.583 257.512 467.63 258.72 463.02C261.034 463.804 273.466 476.355 275.837 478.879C271.745 482.318 266.666 487.12 261.851 489.044L260.244 488.569L259.465 484.846C253.12 483.002 238.918 483.889 232.002 484.093C229.346 484.709 228.329 484.503 225.668 484.243C214.391 483.282 195.977 483.814 184.159 483.828C183.499 487.174 183.045 492.498 181.062 494.634L179.203 494.991L177.906 493.75C177.84 489.719 178.322 488.374 179.396 484.465C173.214 483.426 155.514 483.771 148.538 483.753L83.7019 483.925C93.2071 494.518 108.01 507.528 118.543 517.751L120.998 520.228C154.683 548.042 191.826 587.369 225.542 617.55C226.661 619.019 227.093 619.45 228.765 620.228C230.168 624.278 230.274 622.796 229.073 626.616L226.98 627.727C172.835 578.508 117.774 525.787 64.2746 475.422C81.9103 460.215 99.7634 443.116 117.12 427.388L227.158 328.364L216.124 322.304Z"/><path fill="#5B1977" transform="matrix(0.804688 0 0 0.804688 0.00012207 0)" d="M683.459 388.184C693.846 387.898 705.728 388.164 716.218 388.186L716.406 509.248C716.45 517.426 717.374 556.542 716.345 562.618L683.332 562.637C683.981 504.095 684.194 446.682 683.459 388.184Z"/><path fill="#864999" transform="matrix(0.804688 0 0 0.804688 0.00012207 0)" d="M1357.2 448.361C1368.29 447.972 1376.29 448.375 1387.19 450.516L1374.24 471.531C1348.72 463.292 1330.86 467.362 1311.99 486.592C1311.43 512.397 1311.68 538.931 1311.87 564.743L1292.75 564.777L1277.82 564.625L1277.88 449.189L1311.66 449.209L1311.01 467.348C1325.39 455.971 1339.11 450.35 1357.2 448.361Z"/><path fill="#9A6FBA" fill-opacity="0.98431373" transform="matrix(0.804688 0 0 0.804688 0.00012207 0)" d="M430.139 385.495L485.343 385.539C491.241 392.881 504.652 406.311 511.637 413.28C503.092 420.223 482.079 434.26 472.638 439.974C454.674 440.39 435.453 439.976 417.398 439.898C411.18 433.633 395.403 417.41 390.612 410.949C400.509 404.889 420.739 389.71 430.139 385.495ZM399.946 412.01C407.207 420.022 414.574 428.044 421.732 436.139C436.013 436.169 455.795 436.832 469.619 436.113C480.044 428.878 491.48 420.606 502.062 413.812C495.131 405.567 487.004 397.029 479.09 389.699C464.8 389.727 446.52 389.229 432.559 389.923C422.852 396.081 408.711 404.775 399.946 412.01Z"/><path fill="#5B1977" fill-opacity="0.97254902" transform="matrix(0.804688 0 0 0.804688 0.00012207 0)" d="M672.18 580.14C689.942 579.409 712.076 580.054 730.174 580.074C741.107 589.02 751.106 599.432 762.609 607.548C753.528 615.267 745.833 622.673 737.957 631.592C731.615 636.337 694.056 634.766 683.782 634.754C672.919 625.658 662.918 615.976 651.742 606.968C658.825 599.039 667.847 589.687 672.18 580.14ZM686.702 630.875C691.881 631.035 700.305 632.122 704.365 629.859C706.151 626.601 705.652 627.64 705.396 623.541C700.479 617.196 691.3 623.732 685.893 619.894L685.577 617.798C692.526 612.398 706.536 622.002 703.583 608.669C697.574 606.777 683.172 609.387 676.207 605.631L676.367 604.713C682.566 601.466 695.666 604.891 700.745 602.328C701.197 599.606 699.232 597.769 697.255 595.005L697.366 592.394L697.297 592.423C701.303 592.016 699.855 591.707 703.203 593.149C705.306 598.398 703.471 598.872 706.579 602.493C709.008 603.069 709.287 603.178 711.75 603.057C716.839 602.963 728.441 602.118 732.205 605.383C726.764 608.901 713.016 608.008 706.195 607.855C707.452 609.767 709.07 612.431 710.371 614.209C714.009 619.18 721.883 612.655 726.095 618.483C717.686 626.38 710.48 612.222 712.127 631.014L730.417 631.191C738.254 622.813 745.131 615.089 754.192 607.94C744.915 600.269 735.935 592.725 726.857 584.818C713.511 584.791 689.914 585.4 677.048 584.213C673.052 592.054 665.337 599.666 660.409 607.066C669.208 614.897 678.198 622.741 686.702 630.875Z"/><path fill="#9A6FBA" fill-opacity="0.9254902" transform="matrix(0.804688 0 0 0.804688 0.00012207 0)" d="M557.933 578.033C573.911 577.355 591.859 577.713 607.983 577.702L634.506 604.848C630.981 611.344 615.179 629.991 608.791 633.772L557.477 633.841C549.499 624.33 539.256 615.955 530.568 605.816C535.473 598.92 551.31 582.922 557.933 578.033ZM537.967 606.8L560.288 630.416L606.641 630.383C613.435 623.023 623.265 612.855 628.423 604.628C621.032 597.537 611.705 588.094 604.173 581.5C589.695 581.272 575.413 581.257 560.933 581.314C552.87 588.945 544.343 597.707 537.967 606.8Z"/><path fill="#9A6FBA" fill-opacity="0.98823529" transform="matrix(0.804688 0 0 0.804688 0.00012207 0)" d="M578.226 587.754C588.951 589.32 603.095 609.856 595.997 618.856C593.132 620.935 590.816 620.617 587.25 620.672C580.184 620.892 570.91 622.651 566.695 615.897C565.309 608.984 574.431 595.462 578.226 587.754Z"/><path fill="#5B1977" fill-opacity="0.98039216" transform="matrix(0.804688 0 0 0.804688 0.00012207 0)" d="M301.894 385.226L353.634 385.227C357.977 392.158 368.76 408.915 375.401 412.202L375.324 413.035C363.74 419.639 347.736 430.389 337.057 438.246C331.237 440.927 293.823 439.89 284.836 439.826C278.104 429.881 271.814 420.786 264.638 411.15C277.465 401.439 288.503 394.125 301.894 385.226ZM305.845 389.863C294.563 396.61 283.084 403.376 273.077 411.952C278.774 418.805 283.49 426.201 289.456 432.743C292.138 435.684 293.923 435.18 297.75 435.061L331.403 435.001C342.638 427.396 354.193 419.285 365.852 412.418C360.833 405.86 355.822 398.949 350.357 392.748C347.402 389.395 346.578 389.036 342.144 389.461C329.867 389.892 318.122 389.897 305.845 389.863Z"/><path fill="#5B1977" fill-opacity="0.98823529" transform="matrix(0.804688 0 0 0.804688 0.00012207 0)" d="M787.599 580.049C803.624 579.777 819.692 579.911 835.722 579.975C845.235 588.242 857.582 599.267 867.728 606.328C861.33 615.575 851.993 624.588 844.588 633.36C840.45 634.797 802.189 633.808 794.954 633.729C784.88 623.149 776.697 616.478 765.447 607.246C774.357 597.854 780.616 590.931 787.599 580.049ZM774.382 606.168C778.574 609.967 789.954 621.486 794.409 621.827L795.423 621.34C799.841 617.886 807.123 612.479 810.861 608.698C805.099 604.715 794.055 596.712 788.173 593.92C783.547 598.182 779.184 602.103 774.382 606.168ZM816.809 612.698C810.2 617.933 802.387 623.41 796.159 628.629C803.603 628.779 811.056 628.974 818.5 628.893L836.734 628.887C831.277 624.385 822.319 616.525 816.809 612.698ZM792.002 584.759C799.493 592.912 807.305 598.564 816.498 604.725C820.29 601.796 824.739 598.536 828.345 595.474C831.658 592.447 832.74 592.543 833.431 588.989C827.745 582.315 801.323 584.685 792.002 584.759ZM839.57 594.927C834.125 599.158 828.116 603.65 823.011 608.199C828.63 612.8 835.647 618.878 841.385 623.073L856.972 606.474C852.493 603.608 842.824 595.242 839.57 594.927Z"/><path fill="#9A6FBA" fill-opacity="0.96862745" transform="matrix(0.804688 0 0 0.804688 0.00012207 0)" d="M1611.52 385.096L1663.73 385C1669.7 393.069 1680.07 404.297 1686.93 411.602C1676.04 419.752 1665.5 427.633 1654.31 435.37C1646.83 437.773 1614.8 436.656 1604.67 436.517C1596.59 427.244 1588.45 418.34 1580.14 409.281C1590.94 401.349 1601.02 393.431 1611.52 385.096ZM1588.4 409.895C1596.18 417.734 1602.19 424.779 1609.54 432.482C1619.94 432.603 1644.06 434.302 1652.14 429.889C1659.53 424.481 1671.48 415.204 1679.16 411.114C1672.21 403.753 1665.3 396.455 1658.54 388.923L1614.45 388.838C1608.37 395.139 1595.73 404.284 1588.4 409.895Z"/><path fill="#9A6FBA" transform="matrix(0.804688 0 0 0.804688 0.00012207 0)" d="M1633.07 393.226L1634.97 394.065C1637.36 397.478 1636.41 401.344 1636.14 405.937L1649.85 409.269C1637.93 411.28 1635.08 409.958 1632.33 422.603L1631 422.522C1629.1 420.222 1629.01 414.514 1628.68 411.208C1623.73 411.04 1618.77 410.569 1613.83 410.155L1629.45 406.198L1633.07 393.226Z"/><path fill="#864999" transform="matrix(0.804688 0 0 0.804688 0.00012207 0)" d="M1316.81 385.879C1329.25 384.91 1356.54 385.649 1370.11 385.595C1376.75 395.694 1380.55 401.197 1389.37 409.367C1377.71 417.186 1364.88 427.739 1353.63 436.504C1346.14 441.959 1322.76 439.894 1312.77 439.676C1304.98 433.629 1292.86 418.722 1286.04 411.101C1296.32 404.177 1307.49 394.23 1316.81 385.879ZM1334.12 409.567C1326.94 409.654 1316.4 409.447 1309.66 411.329L1309.49 412.224C1317.1 414.824 1322.59 414.277 1330.58 414.269C1329.27 419.618 1328.18 422.944 1328.64 428.515L1329.86 430.383C1332.1 429.811 1331.35 430.086 1332.98 427.464L1338.43 414.134C1343.36 414.139 1360.34 414.6 1363.46 411.893C1357.53 409.101 1346.33 409.659 1339.64 409.674C1341.28 405.549 1343.58 400.784 1343.58 396.448L1342.49 394.299L1338.61 393.285C1336.77 399.063 1335.53 403.668 1334.12 409.567Z"/><path fill="#9A6FBA" fill-opacity="0.93333334" transform="matrix(0.804688 0 0 0.804688 0.00012207 0)" d="M1731.62 385.096L1784.7 385.057C1791.53 393.347 1799.65 400.473 1807.56 407.723C1804.3 411.732 1783.23 433.246 1779.16 435.319L1728.89 435.348C1723.01 428.722 1709.44 416.64 1702.21 409.311L1731.62 385.096ZM1710.69 409.697C1714.56 414.144 1724.61 426.505 1729.96 428.007L1730.76 431.843L1776.52 431.627C1784.4 424.304 1792.77 415.776 1800.29 408.1L1780.6 389.004C1765.62 389.023 1750.01 389.258 1735.11 388.456C1726.69 395.535 1718.78 402.216 1710.69 409.697Z"/><path fill="#9A6FBA" fill-opacity="0.93333334" transform="matrix(0.804688 0 0 0.804688 0.00012207 0)" d="M1739.8 418.186C1737.18 416.823 1734.67 416.009 1733.49 413.494C1736.51 411.857 1740.26 413.883 1740.92 413.588C1755.77 406.877 1763.11 391.894 1778.44 408.767L1778.49 410.689C1775.72 412.355 1774.08 412.408 1771.38 413.808C1764.58 417.33 1762.66 421.377 1754.58 420.672C1749.42 419.234 1745.18 420.346 1739.8 418.186Z"/><path fill="#9A6FBA" fill-opacity="0.81568629" transform="matrix(0.804688 0 0 0.804688 0.00012207 0)" d="M1739.8 418.186C1745.18 420.346 1749.42 419.234 1754.58 420.672C1741.76 420.263 1741.24 423.085 1730.76 431.843L1729.96 428.007C1731.8 425.036 1737.01 420.716 1739.8 418.186Z"/><path fill="#5B1977" transform="matrix(0.804688 0 0 0.804688 0.00012207 0)" d="M963.326 448.068L997.656 448.017C998.061 486.071 997.509 524.652 997.619 562.813C988.775 563.453 973.088 563.033 963.763 563.054L963.326 448.068Z"/><path fill="#5B1977" fill-opacity="0.97647059" transform="matrix(0.804688 0 0 0.804688 0.00012207 0)" d="M469.951 567.389C478.246 571.341 501.608 600.639 510.363 609.09C518.151 616.607 521.26 620.204 530.89 627.658C514.267 628.236 495.299 627.798 478.5 627.799L417.86 627.672C432.71 608.553 457.01 587.017 469.951 567.389ZM449.75 623.108L470.134 623.055C466.285 617.897 455.602 604.1 450.011 601.646C443.691 607.628 435.439 615.762 430.609 623.072L449.75 623.108ZM452.493 597.884C459.642 598.441 465.632 598.937 472.804 598.819C477.812 598.754 485.83 598.857 490.537 598.391C486.683 593.767 475.216 578.2 470.195 577.544C464.273 584.644 458.731 591.063 452.493 597.884ZM503.337 622.944L514.562 622.908C508.974 616.756 498.714 603.65 491.043 602.685C486.291 608.371 480.656 613.035 481.186 619.854C485.087 624.533 497.339 623.025 503.337 622.944Z"/><path fill="#5B1977" transform="matrix(0.804688 0 0 0.804688 0.00012207 0)" d="M924.336 575.425C932.892 577.704 969.458 618.669 981.518 627.891L929.5 627.916L871.252 627.79C886.589 615.308 909.172 590.646 924.336 575.425Z"/><path fill="#9A6FBA" fill-opacity="0.93725491" transform="matrix(0.804688 0 0 0.804688 0.00012207 0)" d="M1442.39 382.45C1450.46 387.442 1480.93 426.122 1488.43 435.761C1471.23 435.862 1453.72 435.552 1436.5 435.41L1388.2 435.302C1405.74 415.144 1422.48 400.199 1442.39 382.45ZM1398.84 431.893L1420.5 431.983L1440.03 431.966C1436.31 427.02 1425.31 410.609 1420.63 409.584C1411.34 417.867 1406.81 422.443 1398.84 431.893ZM1424.9 405.325C1429.63 409.182 1436.4 418.806 1438.45 419.75L1456.58 406.055C1454.15 402.72 1446.07 390.46 1442.65 389.62C1436.85 394.495 1430.06 399.909 1424.9 405.325ZM1441.42 423.951L1447.14 432.007L1463.5 432.032L1479.75 432.077C1476.35 428.204 1462.27 411.83 1458.99 409.787L1441.42 423.951Z"/><path fill="#9A6FBA" fill-opacity="0.96470588" transform="matrix(0.804688 0 0 0.804688 0.00012207 0)" d="M1925.66 407.836C1928.6 409.094 1928.01 408.368 1929.7 410.663C1925.92 414.682 1901.21 430.459 1895.4 434.271C1902.91 439.629 1927.08 455.584 1931.02 462.049L1930.19 462.995C1923.41 462.543 1897.1 442.113 1890.36 436.906C1875.68 446.049 1837.07 469.299 1825.48 479.223C1844.38 493.737 1862.77 508.586 1881.49 523.287C1892.28 516.592 1929.19 492.799 1937.82 485.746C1930.89 482.937 1926.01 481.675 1921.48 475.641L1922.02 474.334C1929.7 473.246 1933.92 477.27 1940.69 480.636C1945.96 478.334 1952.81 474.449 1958.25 475.986L1958.56 477.677C1956.55 481.382 1951.68 483.897 1948 486.25C1951.54 488.667 1954.51 490.01 1955.63 493.894L1953.92 494.916C1949.52 495.217 1945.57 493.082 1941.47 491.342C1932.49 496.138 1924.93 501.114 1916.43 506.636L1886.32 526.72C1892.7 531.662 1914 546.402 1917.43 551.668L1916.1 552.742C1909.32 553.341 1888.04 535.267 1881.8 530.347C1869.64 537.691 1857.38 545.487 1845.38 553.117C1842.9 554.698 1841.17 554.253 1838.76 553.525L1838.49 551.811C1845.13 545.964 1869.53 531.547 1878.15 526.179C1867.14 520.053 1826.8 487.754 1815.53 478.541C1838.7 464.402 1863.11 448.469 1886.49 433.901C1880.63 429.928 1863.75 419.101 1861.02 413.431L1862.4 412.945C1871.76 415.921 1882.49 424.777 1890.58 430.828C1902.3 423.471 1914.09 415.492 1925.66 407.836Z"/><path fill="#5B1977" transform="matrix(0.804688 0 0 0.804688 0.00012207 0)" d="M971.054 394.312C982.244 393.291 998.708 393.369 1004.99 405.935C1008.89 413.733 996.913 419.483 990.922 421.751C966.205 426.235 938.445 407.157 971.054 394.312Z"/><path fill="#5B1977" fill-opacity="0.89803922" transform="matrix(0.804688 0 0 0.804688 0.00012207 0)" d="M229.759 356.53C230.635 349.628 229.215 341.452 233.382 336.814C233.854 348.253 232.388 367.429 232.285 380.085L232.259 474.148C239.363 474.164 253.346 473.785 259.912 474.469C255.957 475.76 91.1755 475.783 85.1424 474.47C93.7896 473.37 121.042 474.022 130.775 474.028L225.531 474.116C225.631 462.727 227.522 350.19 224.861 346.442C225.322 346.18 226.898 345.789 227.503 345.617C229.851 348.008 229.513 352.761 229.759 356.53Z"/><path fill="#5B1977" fill-opacity="0.91764706" transform="matrix(0.804688 0 0 0.804688 0.00012207 0)" d="M225.668 484.243C228.329 484.503 229.346 484.709 232.002 484.093C231.949 492.672 231.406 508.358 232.316 516.369L233.804 517.413L231.687 518.809L232.163 520.028L232.489 588.429C232.581 600.553 233.239 618.292 232.38 629.934L231.095 630.739C229.033 629.565 228.599 629.413 226.98 627.727L229.073 626.616C230.274 622.796 230.168 624.278 228.765 620.228C227.093 619.45 226.661 619.019 225.542 617.55C228.411 606.834 225.691 536.68 225.909 520.438C225.067 513.288 226.646 496.285 225.638 484.808L225.668 484.243Z"/><path fill="#864999" fill-opacity="0.89019608" transform="matrix(0.804688 0 0 0.804688 0.00012207 0)" d="M1284.41 384.533L1284.06 384.857C1277.25 391.227 1274.44 400.512 1268.98 401.579C1266.58 397.531 1269.73 396.717 1266.53 394.702C1255.9 397.918 1242.61 404.866 1232.2 409.875C1235.87 415.232 1243.02 425.012 1244.45 431.204C1238.71 430.582 1230.78 414.471 1226.17 412.509L1223.78 412.97L1218.43 412.221L1223.02 409.759C1223.92 405.574 1213.69 394.181 1211.61 385.82C1219.3 392.563 1223.12 398.815 1229.06 407.052C1241.57 401.615 1253.81 396.172 1266.2 390.469C1260.08 390.475 1256.01 390.719 1250.02 389.247C1255.48 387.522 1275.85 386.205 1284.41 384.533Z"/><path fill="#864999" transform="matrix(0.804688 0 0 0.804688 0.00012207 0)" d="M1168.08 432.271C1176.55 427.525 1178.54 422.643 1185.37 418.773L1186.37 419.161C1186.33 421.358 1186.23 421.587 1187.11 423.537C1189.82 423.931 1213.53 413.945 1218.43 412.221L1223.78 412.97C1211.97 417.672 1199.21 422.283 1187.99 428.096C1195.84 429.098 1201.18 430.114 1208.91 431.87C1196.53 432.579 1180.71 432.225 1168.08 432.271Z"/><path fill="#9A6FBA" fill-opacity="0.85490197" transform="matrix(0.804688 0 0 0.804688 0.00012207 0)" d="M225.39 517.622C225.329 506.88 225.058 495.487 225.638 484.808C226.646 496.285 225.067 513.288 225.909 520.438C211.462 519.449 192.659 520.085 177.578 519.836C172 518.181 158.24 518.502 152.425 519.837C143.9 519.926 128.996 519.645 120.998 520.228L118.543 517.751L225.39 517.622Z"/><path fill="#9A6FBA" fill-opacity="0.96862745" transform="matrix(0.804688 0 0 0.804688 0.00012207 0)" d="M233.804 517.413C241.296 517.415 248.338 516.964 255.436 519.348L255.66 520.224C247.044 521.828 240.948 520.395 232.163 520.028L231.687 518.809L233.804 517.413Z"/><path fill="#B28CBE" fill-opacity="0.75294119" transform="matrix(0.804688 0 0 0.804688 0.00012207 0)" d="M152.425 519.837C158.24 518.502 172 518.181 177.578 519.836C169.308 520.166 160.725 519.94 152.425 519.837Z"/></svg>