<svg width="100" height="100" viewBox="0 0 100 100" fill="none" xmlns="http://www.w3.org/2000/svg">
<circle cx="50" cy="50" r="50" fill="#FF0000"/>
<path d="M29.6595 93C28.5502 93 27.6968 92.7227 27.0995 92.168L19.9955 85L7.8995 72.968C7.43017 72.4987 7.1315 72.136 7.0035 71.88C6.91817 71.5813 6.8755 71.0907 6.8755 70.408V30.28C6.8755 29.5547 6.91817 29.064 7.0035 28.808C7.1315 28.552 7.43017 28.1893 7.8995 27.72L17.4995 17.992L27.0995 8.52C27.4835 8.13599 27.8675 7.90133 28.2515 7.81599C28.6355 7.73066 29.1048 7.688 29.6595 7.688H47.5795C48.6462 7.688 49.1795 8.22133 49.1795 9.28799V26.952C49.1795 27.336 49.1368 27.6987 49.0515 28.04C49.0088 28.3387 48.8168 28.6587 48.4755 29L40.0275 37.32L33.3075 44.168V57.608L40.8595 65.288L48.4755 72.712C48.8168 73.0107 49.0088 73.3307 49.0515 73.672C49.1368 74.0133 49.1795 74.376 49.1795 74.76V91.4C49.1795 92.4667 48.6462 93 47.5795 93H29.6595Z" fill="white"/>
<path d="M54.0538 86C53.2538 86 52.8538 85.6 52.8538 84.8V23.216C52.8538 22.416 53.2538 22.016 54.0538 22.016H80.5978C81.3658 22.016 82.0058 22.272 82.5178 22.784L92.1178 32.384C92.6618 32.928 92.9338 33.568 92.9338 34.304V50.864C92.9338 51.632 92.6618 52.272 92.1178 52.784L82.5178 62.384C82.0058 62.928 81.3658 63.2 80.5978 63.2H68.8378V84.8C68.8378 85.6 68.4378 86 67.6378 86H54.0538ZM72.4377 50.144C75.0938 50.144 76.9018 49.616 77.8618 48.56C78.8538 47.504 79.3498 45.504 79.3498 42.56C79.3498 39.616 78.8538 37.616 77.8618 36.56C76.9018 35.504 75.0938 34.976 72.4377 34.976C69.8138 34.976 68.0058 35.504 67.0138 36.56C66.0538 37.616 65.5738 39.616 65.5738 42.56C65.5738 45.504 66.0538 47.504 67.0138 48.56C68.0058 49.616 69.8138 50.144 72.4377 50.144Z" fill="white"/>
</svg>
