<svg viewBox="0 -150 2430 1889.9999999999998" fill="none" xmlns="http://www.w3.org/2000/svg" xmlns:xlink="http://www.w3.org/1999/xlink" overflow="visible" width="2430px" height="1889.9999999999998px"><g id="Master/Scenes/Party Time"><g id="Master/Backgrounds/Garden" transform="translate(1 0) scale(1 1)"><g id="Master/Backgrounds/Garden"><g id="Big Plants" transform="translate(1336 153) scale(1 1)"><g id="Big Plants/5"><g id="Plant 2"><path id="Fill 1" fill-rule="evenodd" clip-rule="evenodd" d="M370.958 1338.61C447.375 1283.59 437.563 1299.53 532.641 1300.74C627.723 1301.93 609.383 1202.59 587.983 1176.6C566.587 1150.62 577.287 1100.19 638.423 1113.94C699.555 1127.7 765.276 1126.17 740.821 1052.81C716.37 979.446 763.084 971.006 806.542 901.503C850 832 831.206 792.64 793 785C754.789 777.359 716.37 818.971 684.27 817.441C652.179 815.916 636.894 759.538 598.687 766.327C560.477 773.116 560.164 796.046 532.806 857.182C505.455 918.314 474.885 913.729 436.675 899.973C398.468 886.218 361.788 904.558 341.918 958.05C322.047 1011.55 200.215 1228.36 242.793 1317.88C242.793 1317.88 294.541 1393.64 370.958 1338.61Z" fill="#141414"/><path id="Stroke 4" d="M704.541 876.405C705.389 877.756 705.028 879.523 703.747 880.439L703.519 880.588L702.228 881.408C701.344 881.973 700.336 882.622 699.206 883.355L698.207 884.003C693.797 886.873 688.679 890.268 682.911 894.172L680.424 895.86C665.001 906.354 647.982 918.413 629.742 931.931L628.26 933.03C571.714 975.03 515.168 1022.24 462.402 1073.58C366.212 1167.17 293.619 1263.74 254.182 1360.51C253.557 1362.05 251.806 1362.78 250.272 1362.16C248.737 1361.53 248 1359.78 248.626 1358.25C288.422 1260.59 361.486 1163.4 458.217 1069.28C511.19 1017.74 567.936 970.362 624.683 928.213L627.651 926.013C645.892 912.525 662.9 900.501 678.302 890.048L682.113 887.472C686.034 884.832 689.633 882.442 692.889 880.31L695.943 878.319C696.758 877.791 697.511 877.305 698.201 876.862L700.405 875.459C701.808 874.578 703.66 875.001 704.541 876.405Z" fill="white"/><path id="Fill 6" fill-rule="evenodd" clip-rule="evenodd" d="M298.999 1257.12C298.999 1257.12 401.397 1029.57 500.743 875.882C600.09 722.193 587.86 563.244 464.063 547.959C340.265 532.679 233.282 806.251 298.999 1257.12" fill="#FF4B33"/><path id="Stroke 9" d="M436.136 650.784C437.537 651.546 438.088 653.264 437.419 654.69L437.267 654.981L436.356 656.695L435.324 658.669C434.463 660.33 433.514 662.188 432.482 664.239L431.531 666.137C427.046 675.125 422.064 685.607 416.703 697.503L416.147 698.738C400.219 734.203 384.288 774.635 369.417 819.32C348.733 881.476 331.808 946.826 319.955 1014.49C305.837 1095.08 299.414 1176.22 301.998 1257.03C302.051 1258.69 300.751 1260.07 299.095 1260.12C297.439 1260.18 296.054 1258.88 296.001 1257.22C293.404 1175.98 299.859 1094.43 314.045 1013.45C325.951 945.486 342.95 879.851 363.724 817.426C378.412 773.29 394.133 733.278 409.874 698.066L410.674 696.28C415.719 685.046 420.442 675.037 424.744 666.317L426.162 663.458C427.473 660.831 428.667 658.482 429.735 656.416L430.512 654.919C430.827 654.316 431.113 653.772 431.37 653.288L432.067 651.984C432.859 650.529 434.681 649.991 436.136 650.784Z" fill="#141414"/></g></g></g><g id="Big Plants" transform="matrix(-1 0 0 1 1226 153) scale(1 1)"><g id="Big Plants/5"><g id="Plant 2"><path id="Fill 1" fill-rule="evenodd" clip-rule="evenodd" d="M370.958 1338.61C447.375 1283.59 437.563 1299.53 532.641 1300.74C627.723 1301.93 609.383 1202.59 587.983 1176.6C566.587 1150.62 577.287 1100.19 638.423 1113.94C699.555 1127.7 765.276 1126.17 740.821 1052.81C716.37 979.446 763.084 971.006 806.542 901.503C850 832 831.206 792.64 793 785C754.789 777.359 716.37 818.971 684.27 817.441C652.179 815.916 636.894 759.538 598.687 766.327C560.477 773.116 560.164 796.046 532.806 857.182C505.455 918.314 474.885 913.729 436.675 899.973C398.468 886.218 361.788 904.558 341.918 958.05C322.047 1011.55 200.215 1228.36 242.793 1317.88C242.793 1317.88 294.541 1393.64 370.958 1338.61Z" fill="#141414"/><path id="Stroke 4" d="M704.541 876.405C705.389 877.756 705.028 879.523 703.747 880.439L703.519 880.588L702.228 881.408C701.344 881.973 700.336 882.622 699.206 883.355L698.207 884.003C693.797 886.873 688.679 890.268 682.911 894.172L680.424 895.86C665.001 906.354 647.982 918.413 629.742 931.931L628.26 933.03C571.714 975.03 515.168 1022.24 462.402 1073.58C366.212 1167.17 293.619 1263.74 254.182 1360.51C253.557 1362.05 251.806 1362.78 250.272 1362.16C248.737 1361.53 248 1359.78 248.626 1358.25C288.422 1260.59 361.486 1163.4 458.217 1069.28C511.19 1017.74 567.936 970.362 624.683 928.213L627.651 926.013C645.892 912.525 662.9 900.501 678.302 890.048L682.113 887.472C686.034 884.832 689.633 882.442 692.889 880.31L695.943 878.319C696.758 877.791 697.511 877.305 698.201 876.862L700.405 875.459C701.808 874.578 703.66 875.001 704.541 876.405Z" fill="white"/><path id="Fill 6" fill-rule="evenodd" clip-rule="evenodd" d="M298.999 1257.12C298.999 1257.12 401.397 1029.57 500.743 875.882C600.09 722.193 587.86 563.244 464.063 547.959C340.265 532.679 233.282 806.251 298.999 1257.12" fill="#FF4B33"/><path id="Stroke 9" d="M436.136 650.784C437.537 651.546 438.088 653.264 437.419 654.69L437.267 654.981L436.356 656.695L435.324 658.669C434.463 660.33 433.514 662.188 432.482 664.239L431.531 666.137C427.046 675.125 422.064 685.607 416.703 697.503L416.147 698.738C400.219 734.203 384.288 774.635 369.417 819.32C348.733 881.476 331.808 946.826 319.955 1014.49C305.837 1095.08 299.414 1176.22 301.998 1257.03C302.051 1258.69 300.751 1260.07 299.095 1260.12C297.439 1260.18 296.054 1258.88 296.001 1257.22C293.404 1175.98 299.859 1094.43 314.045 1013.45C325.951 945.486 342.95 879.851 363.724 817.426C378.412 773.29 394.133 733.278 409.874 698.066L410.674 696.28C415.719 685.046 420.442 675.037 424.744 666.317L426.162 663.458C427.473 660.831 428.667 658.482 429.735 656.416L430.512 654.919C430.827 654.316 431.113 653.772 431.37 653.288L432.067 651.984C432.859 650.529 434.681 649.991 436.136 650.784Z" fill="#141414"/></g></g></g><g id="Plant" transform="translate(1496 663.5) scale(1 1)"><g id="Plant/Plant 6"><g id="Plant"><path id="Fill 1" fill-rule="evenodd" clip-rule="evenodd" d="M226.829 426.385C178.48 432.74 140.157 520.068 304.291 608.259C309.19 483.322 286.165 418.584 226.829 426.385" fill="#FFC81A"/><path id="Fill 3" fill-rule="evenodd" clip-rule="evenodd" d="M152.789 595.688C116.696 611.566 139.253 688.867 266.977 722.927C270.938 621.904 196.305 576.545 152.789 595.688" fill="#FFC81A"/><path id="Fill 5" fill-rule="evenodd" clip-rule="evenodd" d="M453.604 656.688C465.962 619.244 403.605 571.099 292.816 643.207C365.227 713.761 438.704 701.833 453.604 656.688" fill="#FFC81A"/><path id="Fill 7" fill-rule="evenodd" clip-rule="evenodd" d="M499.721 376.808C473.27 332.932 373.03 353.652 350.336 523.898C481.178 512.236 531.612 429.708 499.721 376.808" fill="#FFC81A"/><path id="Fill 10" fill-rule="evenodd" clip-rule="evenodd" d="M252.792 853.29H252.812C253.916 853.279 254.803 852.375 254.792 851.27C254.786 850.642 254.421 787.41 274.359 706.204C286.061 658.545 302.363 614.109 322.813 574.132C348.355 524.203 380.476 481.126 418.285 446.097C419.096 445.347 419.144 444.081 418.393 443.27C417.642 442.461 416.375 442.412 415.566 443.163C377.397 478.525 344.982 521.997 319.222 572.37C298.629 612.639 282.219 657.382 270.448 705.359C250.409 787.032 250.786 850.676 250.792 851.31C250.803 852.407 251.696 853.29 252.792 853.29" fill="#141414"/></g></g></g><path id="Path 6 (Stroke)" fill-rule="evenodd" clip-rule="evenodd" d="M2266 1516.5H57V1512.5H2266V1516.5Z" fill="#141414"/><g id="Seat" transform="matrix(-1 0 0 1 1226 913) scale(1 1)"><g id="Seat/Bench 2"><path id="Combined Shape" fill-rule="evenodd" clip-rule="evenodd" d="M95 631.586L159.891 399H217.703L122.781 631.586H95ZM531.504 632L426.386 399H485.607L549.27 632H531.504Z" fill="#FF4B33"/><rect id="Rectangle" x="108" y="283" width="430" height="124" rx="30" fill="#FFC81A"/></g></g><g id="Plant" transform="matrix(-1 0 0 1 645 663.5) scale(1 1)"><g id="Plant/Plant 6"><g id="Plant"><path id="Fill 1" fill-rule="evenodd" clip-rule="evenodd" d="M226.829 426.385C178.48 432.74 140.157 520.068 304.291 608.259C309.19 483.322 286.165 418.584 226.829 426.385" fill="#FFC81A"/><path id="Fill 3" fill-rule="evenodd" clip-rule="evenodd" d="M152.789 595.688C116.696 611.566 139.253 688.867 266.977 722.927C270.938 621.904 196.305 576.545 152.789 595.688" fill="#FFC81A"/><path id="Fill 5" fill-rule="evenodd" clip-rule="evenodd" d="M453.604 656.688C465.962 619.244 403.605 571.099 292.816 643.207C365.227 713.761 438.704 701.833 453.604 656.688" fill="#FFC81A"/><path id="Fill 7" fill-rule="evenodd" clip-rule="evenodd" d="M499.721 376.808C473.27 332.932 373.03 353.652 350.336 523.898C481.178 512.236 531.612 429.708 499.721 376.808" fill="#FFC81A"/><path id="Fill 10" fill-rule="evenodd" clip-rule="evenodd" d="M252.792 853.29H252.812C253.916 853.279 254.803 852.375 254.792 851.27C254.786 850.642 254.421 787.41 274.359 706.204C286.061 658.545 302.363 614.109 322.813 574.132C348.355 524.203 380.476 481.126 418.285 446.097C419.096 445.347 419.144 444.081 418.393 443.27C417.642 442.461 416.375 442.412 415.566 443.163C377.397 478.525 344.982 521.997 319.222 572.37C298.629 612.639 282.219 657.382 270.448 705.359C250.409 787.032 250.786 850.676 250.792 851.31C250.803 852.407 251.696 853.29 252.792 853.29" fill="#141414"/></g></g></g><g id="Object" transform="translate(1298.5 -87) scale(1 1)"><g id="Object/Abstract 1"><path id="Fill 1" fill-rule="evenodd" clip-rule="evenodd" d="M578.896 268.141C578.896 320.687 536.299 363.283 483.754 363.283C431.209 363.283 388.613 320.687 388.613 268.141C388.613 215.596 431.209 172.999 483.754 172.999C536.299 172.999 578.896 215.596 578.896 268.141" fill="#141414"/><path id="Fill 4" fill-rule="evenodd" clip-rule="evenodd" d="M70 385.397H353.868V200.889H70V385.397ZM355.868 389.397H68C66.896 389.397 66 388.502 66 387.397V198.89C66 197.785 66.896 196.89 68 196.89H355.868C356.973 196.89 357.868 197.785 357.868 198.89V387.397C357.868 388.502 356.973 389.397 355.868 389.397V389.397Z" fill="#141414"/><path id="Fill 6" fill-rule="evenodd" clip-rule="evenodd" d="M430.397 487.387L144.324 455.291L165.341 267.959L451.415 300.055L430.397 487.387Z" fill="#FF4B33"/></g></g><g id="Object" transform="translate(117 -142) scale(1 1)"><g id="Object/Balloon 2"><g id="Baloon"><path id="String" fill-rule="evenodd" clip-rule="evenodd" d="M329.852 447.529C327.485 447.529 324.995 448.003 323.039 449.19C318.788 451.768 316.014 458.249 317.83 461.358C318.602 462.68 319.748 463.504 321.233 463.805C323.444 464.254 326.257 463.502 328.4 461.89C331.537 459.526 332.184 453.97 331.591 447.614C331.025 447.559 330.442 447.529 329.852 447.529M319.846 558C319.062 558 318.316 557.863 317.614 557.587C312.702 555.662 311.98 548.076 311.865 542.536C311.631 531.419 320.818 521.122 330.544 510.219C341.11 498.376 352.036 486.128 351.137 472.432C350.528 463.156 344.159 451.693 335.462 448.486C336.022 456.619 334.419 462.152 330.678 464.97C327.664 467.24 323.754 468.237 320.482 467.574C317.926 467.055 315.874 465.58 314.548 463.31C311.422 457.959 315.524 449.262 321.075 445.896C324.137 444.038 327.867 443.545 331.096 443.726C330.119 437.534 328.264 431.057 326.577 426.291C323.649 418.021 320.446 412.877 317.62 408.338C314.237 402.905 311.315 398.213 310.324 390.374C309.129 380.928 311.244 371.049 316.61 361.011C317.109 360.076 318.267 359.726 319.191 360.231C320.118 360.736 320.463 361.901 319.963 362.835C314.983 372.152 313.011 381.254 314.103 389.887C314.988 396.885 317.574 401.037 320.846 406.293C323.776 410.998 327.098 416.332 330.166 424.998C330.912 427.104 333.446 434.601 334.767 442.655C334.859 443.221 334.945 443.779 335.021 444.327C335.029 444.329 335.036 444.33 335.042 444.333L335.228 444.382C346.485 447.453 354.217 461.2 354.938 472.178C355.944 487.494 344.471 500.354 333.377 512.79C324.169 523.111 315.471 532.86 315.673 542.455C315.862 551.445 317.834 553.55 318.994 554.005C319.619 554.248 320.422 554.195 321.384 553.846C322.375 553.483 323.465 554.003 323.822 555.002C324.179 556.001 323.666 557.101 322.676 557.461C321.688 557.821 320.742 558 319.846 558" fill="#FFC81A"/><g id="Baloon_2"><path id="Fill 11" fill-rule="evenodd" clip-rule="evenodd" d="M371.95 102.049C329.949 82.7702 283.607 96.8533 254.626 120.32C251.657 122.725 212.944 155.12 211.071 208.019C209.07 264.509 249.465 333.562 312.455 339.744C302.463 344.252 289.295 359.936 298.082 372.434C300.638 376.071 308.259 380.378 312.287 374.421C319.132 384.538 328.432 386.309 329.761 374.181C352.715 368.882 334.308 346.539 322.571 340.177C386.863 339.511 432.268 272.547 434.421 214.725C435.814 177.308 419.831 124.026 371.95 102.049" fill="#FFC81A"/><path id="Path 2" d="M286.145 127.362C287.751 126.324 289.896 126.785 290.934 128.39C291.972 129.996 291.511 132.139 289.904 133.176C257.724 153.956 244.96 184.128 251.417 224.336C251.72 226.224 250.435 227.999 248.546 228.302C246.657 228.605 244.88 227.321 244.577 225.433C237.692 182.564 251.612 149.659 286.145 127.362Z" fill="white"/></g></g></g></g></g></g><g id="Master/Character/Standing" transform="translate(85 433) scale(1 1)"><g id="Master/Character/Standing"><g id="Lower Body" transform="translate(0 569) scale(1 1)"><g id="Lower Body/Jeans 2"><g id="shoe 2"><path id="SKIN" fill-rule="evenodd" clip-rule="evenodd" d="M662.405 631.541L670.484 686.721L749.846 694.919L737.541 638.068L662.405 631.541Z" fill="white"/><path id="path 6" fill-rule="evenodd" clip-rule="evenodd" d="M750.107 696.919L670.087 689.063C669.115 688.967 668.333 688.221 668.191 687.254L660.023 631.433C659.853 630.271 660.658 629.191 661.82 629.021C662.984 628.858 664.061 629.657 664.232 630.818L672.159 684.992L747.598 692.4L735.561 638.621C735.304 637.475 736.026 636.338 737.171 636.081C738.322 635.824 739.456 636.547 739.711 637.692L752.39 694.338C752.54 695.004 752.36 695.701 751.908 696.212C751.502 696.67 750.921 696.93 750.315 696.93C750.246 696.93 750.176 696.926 750.107 696.919Z" fill="#141414"/><path id="path 23" fill-rule="evenodd" clip-rule="evenodd" d="M666.891 680.25C667.149 679.233 668.149 678.59 669.182 678.774C670.165 678.951 671.41 679.19 672.875 679.473C681.857 681.201 700.546 684.798 718.257 684.812H718.302C728.736 684.812 737.912 681.958 744.14 676.773C744.635 676.361 745.297 676.215 745.923 676.375C776.321 684.289 798.284 690.007 814.56 700.862C817.42 702.771 827.737 711.099 825.953 716.989C825.127 719.713 822.189 721.094 817.219 721.094C799.075 721.094 759.984 721.195 725.495 721.285C697.588 721.358 673.488 721.421 664.414 721.421C663.455 721.421 662.59 720.986 661.977 720.197C658.404 715.601 664.223 690.729 666.891 680.25" fill="#ffc81a"/><path id="Fill 47" fill-rule="evenodd" clip-rule="evenodd" d="M664.78 730.227H821.616C824.222 730.227 826.336 728.115 826.336 725.508V723.949C826.336 721.342 824.222 719.229 821.616 719.229H664.78C662.174 719.229 660.06 721.342 660.06 723.949V725.508C660.06 728.115 662.174 730.227 664.78 730.227" fill="#141414"/><path id="path 25" fill-rule="evenodd" clip-rule="evenodd" d="M777.074 695.217C777.869 695.217 778.631 694.77 778.995 694.004C782.332 686.996 788.743 688.711 789.464 688.932C790.582 689.271 791.771 688.646 792.119 687.53C792.466 686.412 791.851 685.227 790.737 684.873C787.101 683.719 779.163 683.761 775.155 692.176C774.65 693.237 775.1 694.505 776.161 695.01C776.456 695.151 776.767 695.217 777.074 695.217" fill="#141414"/><path id="path 26" fill-rule="evenodd" clip-rule="evenodd" d="M758.293 690.095C759.088 690.095 759.851 689.648 760.215 688.882C763.552 681.874 769.963 683.589 770.683 683.81C771.802 684.15 772.991 683.524 773.338 682.408C773.685 681.29 773.07 680.105 771.956 679.751C768.316 678.598 760.38 678.641 756.375 687.054C755.87 688.115 756.32 689.383 757.381 689.888C757.676 690.029 757.986 690.095 758.293 690.095" fill="#141414"/></g><g id="shoe 1"><path id="SKIN_2" fill-rule="evenodd" clip-rule="evenodd" d="M519.973 631.395L517.596 687.152L447.699 693.144L448.766 637.159L519.973 631.395Z" fill="white"/><path id="path 1" fill-rule="evenodd" clip-rule="evenodd" d="M447.536 695.259C446.998 695.259 446.478 695.055 446.082 694.684C445.643 694.273 445.399 693.695 445.41 693.093L446.429 637.094C446.451 635.92 447.454 634.978 448.594 635.007C449.768 635.029 450.703 635.997 450.682 637.172L449.705 690.817L515.548 685.307L517.896 631.035C517.946 629.863 518.936 628.948 520.112 629.002C521.286 629.053 522.196 630.046 522.145 631.219L519.717 687.362C519.671 688.431 518.836 689.3 517.769 689.389L447.713 695.251C447.654 695.256 447.595 695.259 447.536 695.259" fill="#141414"/><path id="path 2" fill-rule="evenodd" clip-rule="evenodd" d="M522.445 680.573C522.187 679.556 521.187 678.913 520.154 679.097C519.17 679.274 517.926 679.513 516.46 679.796C507.479 681.524 488.79 685.121 471.079 685.135H471.033C460.6 685.135 451.424 682.281 445.195 677.096C444.701 676.684 444.038 676.538 443.412 676.698C413.015 684.612 391.052 690.33 374.776 701.185C371.915 703.094 361.599 711.422 363.383 717.312C364.209 720.036 367.147 721.417 372.116 721.417C390.261 721.417 429.352 721.518 463.841 721.608C491.747 721.681 515.848 721.744 524.922 721.744C525.88 721.744 526.746 721.309 527.359 720.52C530.932 715.924 525.113 691.052 522.445 680.573" fill="#ffc81a"/><path id="path 3" fill-rule="evenodd" clip-rule="evenodd" d="M524.556 730.55H367.72C365.113 730.55 363 728.438 363 725.831V724.272C363 721.665 365.113 719.552 367.72 719.552H524.556C527.162 719.552 529.275 721.665 529.275 724.272V725.831C529.275 728.438 527.162 730.55 524.556 730.55" fill="#141414"/><path id="path 4" fill-rule="evenodd" clip-rule="evenodd" d="M412.261 695.541C411.466 695.541 410.704 695.094 410.34 694.328C407.003 687.32 400.592 689.035 399.871 689.256C398.753 689.595 397.563 688.97 397.216 687.854C396.869 686.736 397.483 685.551 398.598 685.197C402.234 684.043 410.172 684.085 414.179 692.5C414.684 693.561 414.234 694.829 413.174 695.334C412.879 695.475 412.568 695.541 412.261 695.541" fill="#141414"/><path id="path 5" fill-rule="evenodd" clip-rule="evenodd" d="M431.042 690.419C430.247 690.419 429.485 689.972 429.121 689.206C425.783 682.198 419.372 683.913 418.653 684.134C417.534 684.474 416.344 683.848 415.997 682.732C415.65 681.614 416.265 680.429 417.379 680.075C421.019 678.922 428.955 678.965 432.96 687.378C433.465 688.439 433.015 689.707 431.955 690.212C431.66 690.353 431.349 690.419 431.042 690.419" fill="#141414"/></g><g id="pant"><path id="path 10" fill-rule="evenodd" clip-rule="evenodd" d="M427.273 2.94933L375 662.091C426.539 666.307 481.337 665.697 538.159 662.091C538.159 662.091 547.164 111.164 552.11 110.605C561.369 109.561 606.852 662.091 606.852 662.091C658.259 670.419 708.68 667.882 758.805 662.091C758.805 662.091 720.659 173.983 655.364 0.486328C552.164 5.07233 427.273 2.94933 427.273 2.94933" fill="black"/><path id="path 21" fill-rule="evenodd" clip-rule="evenodd" d="M484.299 24.4327C483.072 23.7977 481.563 24.2757 480.929 25.5017C464.357 57.4647 428.583 54.4417 427.025 54.2907C425.641 54.1567 424.427 55.1617 424.292 56.5357C424.157 57.9097 425.162 59.1327 426.536 59.2677C426.606 59.2747 427.845 59.3837 429.944 59.3837C440.092 59.3837 470.319 56.8287 485.367 27.8027C486.003 26.5777 485.525 25.0687 484.299 24.4327" fill="white"/><path id="path 22" fill-rule="evenodd" clip-rule="evenodd" d="M667.829 49.5812C666.357 49.7272 631.643 52.7752 615.567 20.7922C614.949 19.5652 613.486 19.0882 612.3 19.7232C611.111 20.3582 610.647 21.8672 611.263 23.0932C625.854 52.1222 655.159 54.6742 664.997 54.6742C667.03 54.6742 668.232 54.5642 668.3 54.5582C669.631 54.4232 670.603 53.2012 670.475 51.8282C670.345 50.4552 669.157 49.4502 667.829 49.5812" fill="white"/></g></g></g><g id="Upper Body" transform="translate(272 187) scale(1 1)"><g id="Upper Body/Arms Up"><g id="Hand 2"><path id="Fill 1" fill-rule="evenodd" clip-rule="evenodd" d="M560.16 -34.3514C569.879 -49.9984 562.375 -53.7434 556.969 -50.4444C556.969 -50.4444 566.331 -61.9514 561.719 -66.9354C558.838 -70.0484 555.813 -69.6134 548.12 -62.5704C548.12 -62.5704 556.886 -75.4724 551.883 -80.4344C547.24 -85.0394 540.852 -76.4744 535.236 -69.9134C535.236 -69.9134 540.405 -85.9924 531.602 -86.7024C522.891 -87.4054 510.396 -61.8114 505.147 -51.2544C506.926 -64.1174 499.355 -76.1754 495.147 -70.5944C489.947 -63.6954 468.963 3.18864 437.212 60.5956C396.851 126.217 346.852 120.953 346.852 120.953L373.702 209.871C373.702 209.871 381.576 214.172 412.329 196.995C468.061 165.865 500.494 101.519 514.878 65.9216C516.216 65.1286 517.027 64.3456 517.205 63.6106C518.436 58.5506 519.82 53.5846 521.313 48.7216C522.808 44.3496 523.623 41.6176 523.801 41.0126C535.176 7.40964 551.348 -20.1654 560.16 -34.3514" fill="white"/><path id="Fill 3" fill-rule="evenodd" clip-rule="evenodd" d="M561.733 -56.5878C564.333 -60.9308 567.002 -67.3568 563.278 -71.3798C560.525 -74.3538 557.629 -74.5488 554.245 -72.8438C559.472 -86.4268 547.651 -91.9818 538.813 -80.3328C539.313 -85.4618 537.627 -91.4528 531.772 -91.8218C524.122 -92.4418 515.539 -79.0878 507.174 -62.9748C505.749 -71.7408 500.2 -81.5888 493.446 -74.8748C480.571 -45.5298 462.797 6.21723 439.05 49.9612C438.862 50.3002 438.006 52.0812 437.757 52.5072C418.669 85.1312 397.318 100.63 381.765 107.967C372.61 112.285 364.492 114.29 358.414 115.201L359.616 119.343C365.894 118.354 374.058 116.269 383.3 111.945C416.556 96.3862 437.805 63.8802 450.013 38.4722C450.382 37.7042 451.979 33.8002 452.324 33.0912C471.261 -5.78978 486.289 -47.1228 496.844 -72.3148C499.937 -74.6498 504.407 -63.1968 503.039 -54.5458C502.84 -52.2018 502.903 -49.9688 503.541 -47.6758C503.92 -45.5038 505.998 -43.9738 507.608 -42.4938C513.66 -36.9308 511.499 -26.8318 511.363 -26.2398C511.221 -25.6188 511.204 -25.2128 510.98 -24.7538C510.345 -23.5138 512.07 -22.5678 512.773 -23.7338C517.199 -31.3578 513.586 -41.2838 508.298 -47.5128C507.367 -49.2928 507.083 -52.0698 507.43 -54.0728C511.617 -62.5018 524.358 -88.1528 531.43 -87.5838C536.702 -86.6248 534.262 -77.9878 533.28 -73.7968L522.773 -56.9388C522.298 -56.1778 522.531 -55.1758 523.292 -54.7008C524.029 -54.2418 524.994 -54.4488 525.485 -55.1528C525.485 -55.1528 536.92 -71.6128 536.92 -71.6138C540.771 -75.5378 546.403 -84.8018 550.384 -81.9238C554.941 -74.6368 538.525 -56.2928 535.145 -49.4528C533.974 -47.7028 536.689 -45.8518 537.89 -47.5848L549.714 -64.1478C557.559 -71.2918 558.88 -69.8698 560.156 -68.4908C562.686 -65.7578 557.988 -58.0768 555.317 -54.7848C555.31 -54.7698 546.123 -43.1988 546.113 -43.1838C544.912 -41.7128 547.138 -39.7918 548.419 -41.1948L558.284 -51.7418C564.496 -54.4588 564.123 -47.9888 558.353 -38.4718C552.561 -32.2918 526.519 20.9002 519.732 43.8992C519.258 45.5052 516.831 51.9482 516.279 53.4242C512.062 64.6952 505.36 80.8202 495.94 98.3802C466.515 153.228 433.666 179.64 411.29 192.138C398.552 199.252 389.893 202.569 384.199 204.063L385.389 208.164C392.85 206.194 402.233 202.068 413.364 195.85C454.829 172.69 483.218 131.11 499.733 100.306C508.721 83.5422 515.262 68.0612 519.557 56.7782C519.847 56.0162 525.613 39.3732 525.821 38.6732C534.059 14.3192 546.172 -10.8048 561.965 -36.2298C569.682 -49.3988 567.928 -54.7358 561.733 -56.5878" fill="#141414"/></g><g id="Hand 1"><path id="Fill 5" fill-rule="evenodd" clip-rule="evenodd" d="M176.791 125.019C136.04 117.495 99.604 92.851 75.992 36.836L75.763 36.79C54.144 -19.269 42.144 -77.296 38.068 -84.064C34.462 -90.052 25.681 -78.844 26.116 -65.866C21.991 -76.911 12.218 -103.663 3.48 -103.867C-5.349 -104.073 -1.875 -87.545 -1.875 -87.545C-6.78 -94.653 -12.245 -103.835 -17.341 -99.736C-22.832 -95.319 -15.451 -81.578 -15.451 -81.578C-22.372 -89.38 -25.335 -90.127 -28.523 -87.33C-33.628 -82.851 -25.51 -70.436 -25.51 -70.436C-30.545 -74.277 -38.397 -71.331 -30.353 -54.76C-21.48 -36.484 -3.822 2.62401 2.21 47.129C2.333 48.038 3.365 49.113 5.148 50.267C34.348 150.81 98.315 192.986 150.49 214.09L176.791 125.019Z" fill="white"/><path id="Fill 7" fill-rule="evenodd" clip-rule="evenodd" d="M151.108 208.999C91.6087 184.818 23.4397 136.241 0.376747 20.361C0.273747 19.842 -0.442254 17.463 -0.711254 16.303C-7.99725 -10.578 -24.0603 -52.915 -28.4403 -58.688C-33.1933 -68.751 -32.8923 -75.225 -26.9963 -71.878L-18.2783 -60.366C-17.1493 -58.836 -14.7363 -60.517 -15.7783 -62.104C-15.7873 -62.12 -23.7243 -74.581 -23.7293 -74.598C-26.0453 -78.149 -29.9203 -86.275 -27.1213 -88.731C-25.7093 -89.971 -24.2473 -91.248 -17.1863 -83.328L-7.14325 -65.629C-6.12825 -63.78 -3.23625 -65.34 -4.21925 -67.202C-6.87225 -74.356 -21.2963 -94.304 -16.0093 -101.079C-11.7513 -103.528 -7.10925 -93.73 -3.68525 -89.427C-3.68625 -89.427 5.97975 -71.869 5.97975 -71.869C6.39475 -71.118 7.33375 -70.812 8.11375 -71.192C8.92075 -71.585 9.25475 -72.558 8.86275 -73.364L0.159744 -91.222C-0.382256 -95.492 -1.91226 -104.335 3.42974 -104.741C10.5237 -104.575 20.5357 -77.74 23.8257 -68.922C23.9627 -66.895 23.3917 -64.162 22.2807 -62.488C16.3757 -56.841 11.7537 -47.343 15.3647 -39.301C15.9427 -38.069 17.9287 -38.88 17.4257 -40.18C17.2497 -40.66 16.9317 -41.151 17.0267 -41.647C17.1407 -42.244 15.8517 -52.519 22.4477 -57.425C24.2017 -58.73 26.4267 -60.035 27.0297 -62.157C27.9017 -64.371 28.1967 -66.585 28.2417 -68.938C27.7777 -77.684 33.4127 -88.611 36.2467 -85.968C45.4447 -55.459 57.3767 -5.43395 76.3017 40.582C76.5527 41.241 77.9517 43.903 78.5467 45.05C92.9197 74.812 112.312 96.373 136.219 109.821C148.371 116.656 161.62 121.387 176.179 124.093L177.395 119.975C131.678 111.674 98.9058 83.1561 77.8857 33.2941C77.7587 32.9911 77.6137 32.719 77.3997 32.25C60.4748 -11.373 48.9737 -59.764 39.8917 -88.161C33.8697 -95.541 27.3297 -86.321 25.0037 -77.75C18.3547 -94.643 11.2037 -108.816 3.52975 -108.993C-2.33125 -109.232 -4.62925 -103.449 -4.66525 -98.296C-12.2473 -110.798 -24.5803 -106.5 -20.7903 -92.448C-23.9793 -94.495 -26.8803 -94.601 -29.9263 -91.929C-34.0473 -88.313 -32.0593 -81.646 -29.9243 -77.056C-36.2773 -75.857 -38.5763 -70.73 -32.2663 -56.832C-17.6333 -26.688 -9.35826 -2.04895 -2.31326 28.007C-1.77726 30.294 -0.366254 34.808 0.482746 38.29C14.3647 95.311 40.2897 136.812 76.8137 168.975C100.965 190.243 127.096 203.902 149.89 213.125L151.108 208.999Z" fill="#141414"/></g><path id="T Shirt" fill-rule="evenodd" clip-rule="evenodd" d="M367.246 196.113C366.982 194.969 367.696 193.827 368.841 193.563C369.984 193.298 371.127 194.014 371.391 195.158L377.628 222.234C414.481 213.224 421.061 197.817 421.061 197.817C421.061 197.817 414.999 149 389.999 102C323.999 108 305.999 99 295.999 99C275.999 92 236.998 94.1729 214.999 101C185.999 110 181.999 112 148.454 107.957C144.47 124.509 123.116 167.285 103.371 201.207C116.999 210 129.392 214.23 154.296 220.934L155.688 199.963C155.766 198.792 156.784 197.918 157.951 197.982C159.122 198.06 160.01 199.073 159.932 200.245L158.134 227.348C158.131 227.388 158.12 227.424 158.115 227.463C156.184 304.653 153.657 394.247 153.657 394.247L409.687 390.247C409.687 390.247 382.587 277.174 374.114 225.91C374.111 225.897 374.105 225.886 374.102 225.873L367.246 196.113Z" fill="#ffc81a"/><g id="neck"><path id="Fill 30" fill-rule="evenodd" clip-rule="evenodd" d="M238.539 70.6416L234.773 105.805C234.773 105.805 242.2 121.902 264.984 123.005C295.722 124.492 289.289 105.447 289.289 105.447L288.434 73.6896" fill="white"/><path id="Fill 32" fill-rule="evenodd" clip-rule="evenodd" d="M264.888 125.002C241.166 123.854 233.282 107.345 232.958 106.643C232.807 106.315 232.747 105.951 232.785 105.592L236.552 70.4284C236.669 69.3304 237.661 68.5354 238.753 68.6524C239.851 68.7704 240.647 69.7564 240.529 70.8544L236.826 105.428C238.215 108.003 245.735 120.07 265.082 121.006C275.333 121.499 284.198 119.67 286.937 115.708C289.747 111.644 287.482 106.302 287.459 106.249C287.357 106.014 287.298 105.755 287.291 105.5L286.436 73.7444C286.406 72.6404 287.277 71.7204 288.382 71.6914C289.477 71.6494 290.405 72.5324 290.435 73.6364L291.28 105.034C291.892 106.647 293.818 112.747 290.252 117.947C286.999 122.69 278.281 125.086 268.26 125.086C267.175 125.086 266.051 125.058 264.888 125.002Z" fill="#141414"/></g></g></g><g id="Head" transform="translate(439 92) scale(1 1)"><g id="Head/Short Hair 4"><g id="Short Hair"><path id="SKIN" fill-rule="evenodd" clip-rule="evenodd" d="M152.657 90.1809C145.373 45.6369 123.61 44.3309 82.9817 47.3839C63.9047 48.8169 40.0927 66.0939 42.2237 97.4009C31.0747 93.1319 24.8227 100.16 25.1997 108.558C25.5397 116.098 28.9517 126.031 42.8227 126.031C44.1667 149.026 59.1767 186.07 106.318 186.07C154.452 186.07 158.973 128.808 152.657 90.1809" fill="white"/><path id="hair" fill-rule="evenodd" clip-rule="evenodd" d="M138.121 170.34C118.077 194.314 72.5216 184.62 57.2356 161.175C49.0796 151.308 44.8676 132.557 44.8196 125.914C44.8126 124.854 43.8816 124.03 42.8226 124.03C27.8566 124.935 22.8666 106.491 30.8506 99.6315C34.5986 96.8085 39.7466 97.7555 43.5586 99.9375C44.1256 100.262 59.2616 99.0255 68.9366 70.0025C87.7926 80.9795 123.159 86.3555 147.697 77.2195C155.497 106.091 156.337 148.278 138.121 170.34M184.717 29.2635C180.871 5.2195 152.544 2.2375 130.5 12.4815C110.583 -11.0815 56.3156 -2.9285 46.9716 30.4715C39.4566 29.0205 31.4976 30.7915 24.3566 35.5425C-14.8494 63.6145 11.7436 122.486 28.2246 130.587C32.4816 144.17 37.8976 152.043 48.7036 154.779C59.0946 182.991 115.317 203.848 141.171 172.93C160.649 149.336 159.705 106.035 151.378 75.6645C170.34 66.3325 186.977 49.3175 184.717 29.2635M36.7832 106.032C33.8272 105.929 33.8272 114.161 36.7832 114.058C39.7392 114.161 39.7392 105.928 36.7832 106.032" fill="#141414"/></g></g></g><g id="Face" transform="translate(499 178) scale(1 1)"><g id="Face/Normal Face 2"><path id="Normal face 2" fill-rule="evenodd" clip-rule="evenodd" d="M78.6678 13.3124C77.5278 11.8974 76.0488 10.6384 74.3148 9.74741C72.5888 8.83741 70.6498 8.37241 68.7778 8.15441C66.8968 7.94241 65.0538 7.96141 63.2758 8.13341C61.4978 8.30741 59.7718 8.58841 58.0678 8.89041C57.8938 8.92241 57.7018 8.97341 57.5288 9.03641C55.9038 9.63541 55.0728 11.4394 55.6718 13.0644C56.2718 14.6894 58.0748 15.5204 59.6998 14.9214C61.1678 14.3794 62.6468 13.9194 64.1118 13.5884C65.5758 13.2594 67.0288 13.0184 68.4248 13.0444C71.2348 13.0974 73.6308 14.1784 75.9948 15.9984L76.0218 16.0194C76.7028 16.5434 77.6788 16.5554 78.3788 15.9914C79.1978 15.3314 79.3278 14.1314 78.6678 13.3124ZM26.5348 10.7451C27.8138 10.7087 29.0491 10.6735 30.2504 10.5639C31.9014 10.4139 33.3624 11.6309 33.5124 13.2829C33.6624 14.9339 32.4454 16.3949 30.7934 16.5439C30.7254 16.5509 30.6564 16.5549 30.5884 16.5559L30.5414 16.5569C28.6041 16.5948 26.7364 16.4748 24.9549 16.3603L24.9549 16.3603C23.4912 16.2662 22.0856 16.1758 20.7474 16.1799C19.2624 16.1819 17.8524 16.3239 16.4984 16.6889C15.1454 17.0589 13.8434 17.6039 12.4334 18.2039L12.3614 18.2339C11.4994 18.6019 10.5024 18.1999 10.1354 17.3379C9.86637 16.7059 10.0124 16.0009 10.4484 15.5249C11.6784 14.1879 13.2804 13.1399 15.0244 12.4399C16.7654 11.7229 18.6144 11.3109 20.3944 11.0869C21.9192 10.8953 23.3965 10.8464 24.8169 10.7993L24.8169 10.7993L24.817 10.7993C25.0574 10.7914 25.2962 10.7835 25.5334 10.7749C25.8702 10.764 26.2039 10.7545 26.5347 10.7451L26.5348 10.7451ZM66.0818 30.3932C65.6738 27.5712 67.4098 24.9832 69.9618 24.6142C72.5128 24.2452 74.9108 26.2342 75.3188 29.0562C75.7278 31.8792 73.9908 34.4662 71.4408 34.8352C68.8888 35.2042 66.4898 33.2152 66.0818 30.3932ZM48.6647 56.9164C48.2147 56.8144 47.8807 56.7204 47.3057 56.4744C46.5957 56.1714 46.2657 55.3504 46.5697 54.6404C46.7477 54.2224 47.1067 53.9364 47.5157 53.8334L48.0587 53.7004C48.2797 53.6464 48.7597 53.6634 49.1197 53.6824L49.2238 53.6894C49.5738 53.7128 49.8236 53.7295 50.1867 53.7304C50.9187 53.7374 51.6387 53.6824 52.3197 53.5634C53.6837 53.3234 54.8547 52.7604 55.4057 52.0114C55.6897 51.6364 55.8617 51.1994 55.9297 50.6594C56.0027 50.1344 55.9627 49.4604 55.8247 48.9954C55.5757 48.0634 54.8177 47.2804 53.6557 46.5034C53.0877 46.1224 52.4497 45.7684 51.7667 45.4554L51.5137 45.3344L51.3567 45.2604C51.2017 45.1854 51.0047 45.0564 50.9157 44.9784C50.8197 44.8964 50.7227 44.8044 50.6407 44.7134L50.4757 44.5034C50.1816 44.0661 50.0961 43.8105 50.0152 43.5686C49.9984 43.5184 49.9819 43.4689 49.9637 43.4184C49.7987 42.8724 49.7167 42.4184 49.6427 41.9674C49.3707 40.1914 49.2827 38.5434 49.1977 36.8714C49.0357 33.5424 49.0307 30.2574 49.1067 26.9454C49.1247 26.1664 49.7697 25.5494 50.5487 25.5674C51.2857 25.5844 51.8787 26.1634 51.9247 26.8864L51.9257 26.9054C52.1227 30.1454 52.3497 33.4104 52.6527 36.6194C52.8167 38.2124 53.0017 39.8344 53.3067 41.2864C53.3627 41.5454 53.4267 41.7874 53.4917 41.9994C54.2557 42.3124 55.0207 42.6744 55.7797 43.1254C56.5897 43.6244 57.4147 44.2214 58.1257 45.0504C58.8487 45.8574 59.4137 46.9404 59.6617 48.0494C59.9067 49.1754 59.9107 50.1734 59.7377 51.2644C59.5637 52.3424 59.0947 53.4764 58.3417 54.3734C57.5967 55.2774 56.6387 55.9174 55.6837 56.3264C54.7197 56.7354 53.7547 56.9374 52.8127 57.0494C51.8707 57.1544 50.9467 57.1614 50.0427 57.0944C49.6217 57.0664 49.0677 57.0134 48.6647 56.9164ZM61.1112 69.5312L61.0952 69.5392C57.2432 71.4512 52.7582 71.8822 48.5372 71.3392C46.4512 71.1012 44.4252 70.5622 42.5902 69.6642C41.6692 69.2282 40.7902 68.7112 39.9862 68.1162C39.5832 67.8202 39.1982 67.5062 38.8352 67.1812C38.7863 67.1346 38.7368 67.0883 38.6874 67.042C38.5609 66.9237 38.4351 66.806 38.3222 66.6852C38.1692 66.5362 37.9802 66.3152 37.9372 66.2582C37.8892 66.1932 37.8362 66.1272 37.7812 66.0672C36.8542 65.0412 35.2702 64.9612 34.2442 65.8882C33.2182 66.8152 33.1392 68.3982 34.0662 69.4242L34.0882 69.4482C34.4272 69.8242 34.6382 70.0202 34.9082 70.2632C35.1152 70.4549 35.3256 70.6276 35.536 70.8004C35.5857 70.8413 35.6355 70.8821 35.6852 70.9232C36.2112 71.3362 36.7482 71.7192 37.3002 72.0722C38.4032 72.7812 39.5662 73.3672 40.7642 73.8452C43.1542 74.8272 45.6972 75.3262 48.2112 75.4512C50.7132 75.5762 53.1742 75.2872 55.5922 74.7232C58.0002 74.1412 60.3322 73.1982 62.4272 71.8642C62.9962 71.4992 63.2152 70.7542 62.9092 70.1362C62.5792 69.4722 61.7742 69.2012 61.1112 69.5312ZM16.7508 30.7827C17.1588 27.9607 19.5578 25.9717 22.1088 26.3407C24.6598 26.7097 26.3968 29.2967 25.9888 32.1187C25.5808 34.9417 23.1818 36.9297 20.6298 36.5617C18.0798 36.1927 16.3428 33.6047 16.7508 30.7827Z" fill="#141414"/></g></g><g id="Accessories" transform="translate(491 176) scale(103 60)"><g id="Accessories/None" stroke="none" stroke-width="1" fill="none" fill-rule="evenodd" fill-opacity="0"/></g><g id="Facial Hair" transform="translate(501 234) scale(90 60)"><g id="Facial Hair/None" stroke="none" stroke-width="1" fill="none" fill-rule="evenodd" fill-opacity="0"/></g></g></g><g id="Object" transform="translate(1772 366) scale(0.6775193798449612 0.676923076923077)"><g id="Object/Chat"><g id="bubble"><path id="Stroke 1" fill-rule="evenodd" clip-rule="evenodd" d="M280.5 333.193C280.5 286.606 324.915 249.061 379.479 249.061C434.043 249.061 478.458 286.606 478.458 333.193C478.458 361.426 461.987 387.202 435.188 402.731L435.104 402.778L435.131 403.809C435.56 418.474 438.289 428.417 443.16 430.843L443.504 431.008C446.144 432.382 445.352 436.441 442.308 436.653C429.514 437.542 419.125 434.693 410.992 428.934C405.763 425.23 401.871 420.646 399.111 415.75L399.056 415.653L398.72 415.713C392.804 416.708 386.81 417.249 380.773 417.316L379.479 417.324C324.915 417.324 280.5 379.78 280.5 333.193ZM472.458 333.193C472.458 290.164 430.932 255.061 379.479 255.061C328.026 255.061 286.5 290.164 286.5 333.193C286.5 376.222 328.026 411.324 379.479 411.324C386.436 411.324 393.338 410.66 400.127 409.365C401.454 409.112 402.787 409.777 403.382 410.99C405.761 415.835 409.376 420.437 414.46 424.037C419.869 427.868 426.489 430.215 434.498 430.713L434.704 430.725L434.478 430.352C430.824 424.199 429.248 414.349 429.085 401.672L429.078 401.074C429.068 399.974 429.66 398.956 430.622 398.423C456.576 384.017 472.458 359.707 472.458 333.193Z" fill="#141414"/><path id="Fill 3" fill-rule="evenodd" clip-rule="evenodd" d="M349.684 335.305C349.684 340.983 345.082 345.585 339.405 345.585C333.727 345.585 329.125 340.983 329.125 335.305C329.125 329.628 333.727 325.026 339.405 325.026C345.082 325.026 349.684 329.628 349.684 335.305" fill="#141414"/><path id="Fill 5" fill-rule="evenodd" clip-rule="evenodd" d="M390.024 335.305C390.024 340.983 385.422 345.585 379.744 345.585C374.067 345.585 369.465 340.983 369.465 335.305C369.465 329.628 374.067 325.026 379.744 325.026C385.422 325.026 390.024 329.628 390.024 335.305" fill="#141414"/><path id="Fill 7" fill-rule="evenodd" clip-rule="evenodd" d="M430.36 335.305C430.36 340.983 425.758 345.585 420.08 345.585C414.403 345.585 409.801 340.983 409.801 335.305C409.801 329.628 414.403 325.026 420.08 325.026C425.758 325.026 430.36 329.628 430.36 335.305" fill="#141414"/><path id="Fill 9" fill-rule="evenodd" clip-rule="evenodd" d="M137 302.416C137 257.608 179.97 221.284 232.979 221.284C285.987 221.284 328.958 257.608 328.958 302.416C328.958 347.224 285.987 383.546 232.979 383.546C225.687 383.546 218.595 382.837 211.769 381.535C208.101 389.005 197.141 404.743 170.359 402.883C178.19 399.32 180.25 384.26 180.38 370.268C154.261 355.769 137 330.803 137 302.416" fill="#FF4B33"/><path id="Fill 11" fill-rule="evenodd" clip-rule="evenodd" d="M202.051 306.179C202.051 311.857 197.449 316.459 191.772 316.459C186.094 316.459 181.492 311.857 181.492 306.179C181.492 300.502 186.094 295.9 191.772 295.9C197.449 295.9 202.051 300.502 202.051 306.179" fill="white"/><path id="Fill 13" fill-rule="evenodd" clip-rule="evenodd" d="M242.387 306.179C242.387 311.857 237.785 316.459 232.108 316.459C226.43 316.459 221.828 311.857 221.828 306.179C221.828 300.502 226.43 295.9 232.108 295.9C237.785 295.9 242.387 300.502 242.387 306.179" fill="white"/><path id="Fill 15" fill-rule="evenodd" clip-rule="evenodd" d="M282.727 306.179C282.727 311.857 278.125 316.459 272.447 316.459C266.77 316.459 262.168 311.857 262.168 306.179C262.168 300.502 266.77 295.9 272.447 295.9C278.125 295.9 282.727 300.502 282.727 306.179" fill="white"/><path id="Stroke 17" d="M460.89 215.695C461.473 214.144 463.203 213.359 464.754 213.942C466.25 214.504 467.033 216.132 466.564 217.639L466.507 217.806L456.688 243.937C456.105 245.488 454.375 246.273 452.824 245.69C451.329 245.128 450.546 243.5 451.014 241.993L451.071 241.827L460.89 215.695Z" fill="#141414"/><path id="Stroke 19" d="M492.359 238.905C493.64 237.854 495.531 238.041 496.581 239.322C497.592 240.553 497.458 242.349 496.307 243.419L496.164 243.544L475.106 260.816C473.825 261.867 471.934 261.68 470.884 260.399C469.873 259.167 470.007 257.372 471.158 256.302L471.301 256.177L492.359 238.905Z" fill="#141414"/><path id="Stroke 21" d="M508.282 274.056C509.922 273.822 511.442 274.962 511.676 276.602C511.902 278.183 510.85 279.653 509.304 279.966L509.13 279.996L484.932 283.45C483.292 283.684 481.772 282.544 481.538 280.904C481.313 279.323 482.364 277.853 483.91 277.54L484.084 277.51L508.282 274.056Z" fill="#141414"/></g></g></g><g id="Object" transform="translate(554 366) scale(0.8635658914728682 0.8630769230769231)"><g id="Object/Play Button"><g id="play"><path id="Fill 12" fill-rule="evenodd" clip-rule="evenodd" d="M427.513 324.758C427.513 382.612 380.611 429.514 322.756 429.514C264.902 429.514 218 382.612 218 324.758C218 266.902 264.902 220 322.756 220C380.611 220 427.513 266.902 427.513 324.758" fill="#FF4B33"/><path id="Fill 14" fill-rule="evenodd" clip-rule="evenodd" d="M286.691 324.758V277.562L327.563 301.159L368.436 324.758L327.563 348.355L286.691 371.952V324.758Z" fill="white"/></g></g></g><g id="Object" transform="translate(1150 1047) scale(0.8651162790697674 0.8630769230769231)"><g id="Object/Cloud 1"><path id="Fill 1" fill-rule="evenodd" clip-rule="evenodd" d="M140.472 385.488C140.472 385.488 169.426 317.231 190.189 317.241C210.952 317.249 220.154 335.997 230.74 332.769C241.325 329.544 262.613 238.741 294.847 242.065C327.081 245.392 322.282 321.658 354.354 327.57C386.426 333.482 405.273 281.461 441.061 290.201C476.85 298.941 484.416 364.305 493.781 380.468C503.146 396.63 518.007 407.947 498.535 408.021C479.064 408.091 96.2679 407.365 140.472 385.488" fill="white"/><path id="Fill 1 Copy" fill-rule="evenodd" clip-rule="evenodd" d="M415.732 292.1C409.678 295.136 404.785 298.725 395.942 306.177L391.27 310.135C390.999 310.364 390.741 310.581 390.487 310.795L389.435 311.674C382.707 317.274 378.073 320.585 373.188 323.014C366.868 326.156 360.867 327.246 354.626 326.095C347.809 324.839 342.377 320.106 337.605 311.865L337.434 311.568C334.034 305.635 331.589 299.515 327.329 287.043L325.013 280.224C320.786 267.879 318.333 261.784 314.906 255.883L314.554 255.283C309.294 246.415 303.05 241.404 295.001 240.573C286.591 239.706 278.616 244.59 270.827 254.332C264.852 261.805 259.168 271.812 252.979 285.044L252.169 286.788C250.071 291.336 245.269 302.42 242.026 309.907C240.725 312.911 239.674 315.336 239.15 316.527L238.474 318.027C234.601 326.495 231.917 330.842 230.302 331.334C229.391 331.612 228.476 331.699 227.522 331.607C225.717 331.434 223.757 330.631 221.25 329.104C219.94 328.306 215.318 325.13 213.969 324.197L213.051 323.575C205.084 318.308 198.51 315.744 190.19 315.741C185.359 315.739 180.161 318.884 174.576 324.69C168.732 330.764 162.564 339.647 156.243 350.616C151.919 358.118 147.779 366.15 143.965 374.181C142.631 376.992 141.432 379.602 140.387 381.945L140.036 382.735L139.307 384.4L139.11 384.507C133.114 387.797 134.576 391.699 141.889 394.162C147.876 396.178 158.446 397.971 173.322 399.575L175.709 399.827C202.759 402.622 242.633 404.785 292.482 406.386L300.607 406.639C340.169 407.836 383.711 408.637 428.141 409.106L438.041 409.204C460.391 409.412 481.341 409.519 493.021 409.527L498.93 409.517C507.403 409.412 510.838 406.883 509.198 401.718C508.656 400.015 507.581 398.086 505.761 395.405L505.246 394.655C504.958 394.238 504.093 393.029 503.085 391.62C501.615 389.566 499.841 387.086 499.103 386.015L498.645 385.345C497.291 383.354 496.126 381.522 495.079 379.716C494.566 378.829 494.038 377.749 493.491 376.467C492.187 373.415 491.048 370.08 488.993 363.392L487.119 357.224C484.307 347.947 482.819 343.251 480.906 337.883L479.984 335.335C470.247 308.854 458.546 292.926 441.417 288.743C432.541 286.576 424.221 287.844 415.732 292.1ZM255.313 287.138C269.157 257.352 281.424 242.189 294.693 243.557C301.657 244.276 307.154 248.687 311.974 256.814C315.453 262.68 317.879 268.65 322.187 281.231L324.925 289.283C329.055 301.303 331.51 307.325 335.009 313.368L335.292 313.852C340.402 322.491 346.413 327.632 354.082 329.045C361.008 330.322 367.655 329.116 374.524 325.7C379.533 323.21 384.205 319.899 390.814 314.429L392.416 313.092L398.341 308.079C406.389 301.316 411.035 297.896 416.426 295.113L417.077 294.782C424.962 290.828 432.565 289.67 440.706 291.658C456.73 295.571 467.978 311.068 477.459 337.165L477.586 337.516C479.437 342.629 480.794 346.784 483.082 354.262L485.12 360.975C487.767 369.708 489.071 373.686 490.556 377.23L490.953 378.156C491.469 379.326 491.976 380.343 492.483 381.22C493.689 383.301 495.039 385.403 496.632 387.716C497.392 388.819 499.201 391.349 500.678 393.413C501.472 394.521 502.169 395.496 502.556 396.043L503.256 397.056C504.934 399.527 505.905 401.261 506.338 402.626C507.201 405.342 505.574 406.494 498.53 406.521L495.634 406.527C484.014 406.536 459.375 406.416 433.584 406.161L419.68 406.012C376.337 405.512 334.033 404.69 295.673 403.485L291.044 403.338C242.488 401.76 203.523 399.645 176.857 396.929L174.419 396.675C159.341 395.072 148.669 393.28 142.847 391.319L142.546 391.216C139.986 390.323 138.596 389.438 138.426 388.897L138.42 388.866C138.396 388.581 139.092 387.845 141.138 386.833L140.472 385.488L141.853 386.074L141.88 386.011L142.317 385.001C142.46 384.674 142.614 384.323 142.78 383.948L143.766 381.742C144.424 380.287 145.136 378.74 145.897 377.117L146.675 375.468C150.457 367.504 154.562 359.54 158.842 352.114C165.052 341.338 171.095 332.634 176.738 326.769C181.81 321.497 186.367 318.739 190.188 318.741C197.816 318.744 203.878 321.107 211.398 326.078L211.92 326.427C212.031 326.51 218.088 330.691 219.69 331.666L220.115 331.921C222.784 333.502 225.011 334.38 227.235 334.594C228.575 334.722 229.884 334.598 231.177 334.204C233.989 333.347 236.729 329.016 240.969 319.786L241.628 318.339C241.991 317.536 243.216 314.708 244.806 311.036C247.834 304.049 252.186 294.003 254.441 289.034L255.313 287.138Z" fill="#141414"/></g></g><g id="Master/Character/Standing" transform="matrix(-1 0 0 1 1750 433) scale(1 1)"><g id="Master/Character/Standing"><g id="Lower Body" transform="translate(0 569) scale(1 1)"><g id="Lower Body/Jump"><g id="Assets 52"><path id="SKIN" fill-rule="evenodd" clip-rule="evenodd" d="M145.849 160.126L90.7446 147.579L57.6826 214.212L140.254 236.253L145.849 160.126Z" fill="white"/><path id="Fill 2" fill-rule="evenodd" clip-rule="evenodd" d="M55.5777 214.481C55.6017 214.417 55.6307 214.353 55.6607 214.291L88.6437 146.439C89.0777 145.563 90.0537 145.097 91.0077 145.307L146.097 157.468C147.244 157.721 147.968 158.857 147.715 160.003C147.454 161.15 146.326 161.874 145.18 161.622L91.7147 149.819L60.7767 213.547L141.325 234.149C142.488 234.315 143.295 235.393 143.129 236.555C142.962 237.722 141.883 238.526 140.723 238.359L57.2647 217.34C56.5887 217.244 56.0007 216.829 55.6837 216.225C55.3987 215.683 55.3627 215.048 55.5777 214.481" fill="#141414"/><path id="Fill 4" fill-rule="evenodd" clip-rule="evenodd" d="M101.778 147.997C102.533 148.726 102.595 149.913 101.923 150.718C101.281 151.484 100.456 152.446 99.4842 153.579C93.5272 160.519 81.1323 174.962 72.3333 190.332C72.3253 190.346 72.3182 190.358 72.3102 190.372C67.1342 199.431 65.0613 208.813 66.4723 216.794C66.5843 217.428 66.3823 218.076 65.9333 218.54C43.9813 241.007 28.1202 257.238 10.6202 265.985C7.54425 267.522 -4.80475 272.348 -9.03475 267.876C-10.9898 265.809 -10.7308 262.572 -8.26475 258.257C0.736249 242.503 20.0422 208.512 37.0742 178.521C50.8562 154.256 62.7582 133.3 67.2602 125.421C67.7362 124.589 68.5422 124.053 69.5312 123.912C75.2952 123.09 94.0033 140.481 101.778 147.997" fill="#ff8333"/><path id="Fill 6" fill-rule="evenodd" clip-rule="evenodd" d="M59.4316 121.37L-18.3774 257.544C-19.6704 259.807 -18.8844 262.689 -16.6214 263.982L-15.2674 264.757C-13.0044 266.05 -10.1214 265.264 -8.82843 263L68.9806 126.826C70.2736 124.563 69.4876 121.681 67.2246 120.388L65.8706 119.613C63.6076 118.32 60.7246 119.106 59.4316 121.37" fill="#141414"/><path id="Fill 8" fill-rule="evenodd" clip-rule="evenodd" d="M34.1179 236.239C33.7229 236.929 33.7339 237.813 34.2179 238.51C38.6469 244.884 33.9769 249.599 33.4279 250.115C32.5789 250.918 32.5319 252.26 33.3279 253.117C34.1259 253.971 35.4599 254.027 36.3199 253.234C39.1259 250.65 43.0279 243.737 37.7099 236.083C37.0389 235.118 35.7149 234.88 34.7499 235.55C34.4819 235.736 34.2699 235.973 34.1179 236.239" fill="#141414"/><path id="Fill 10" fill-rule="evenodd" clip-rule="evenodd" d="M47.8828 222.474C47.4878 223.163 47.4988 224.047 47.9828 224.744C52.4118 231.119 47.7418 235.833 47.1938 236.349C46.3428 237.152 46.2968 238.495 47.0928 239.35C47.8918 240.205 49.2258 240.26 50.0858 239.468C52.8918 236.88 56.7928 229.968 51.4748 222.317C50.8048 221.352 49.4798 221.114 48.5148 221.784C48.2468 221.97 48.0348 222.207 47.8828 222.474" fill="#141414"/></g><g id="Assets 53"><path id="SKIN_2" fill-rule="evenodd" clip-rule="evenodd" d="M999.922 297.34L1069.14 357.835L1011.91 402.252L963.407 365.465L999.922 297.34Z" fill="white"/><path id="Fill 14" fill-rule="evenodd" clip-rule="evenodd" d="M1071.32 359.403C1071.27 359.452 1071.22 359.498 1071.17 359.542L1013.78 403.906C1013.02 404.521 1011.94 404.54 1011.16 403.951L966.133 369.962C965.196 369.255 965.01 367.92 965.718 366.982C966.431 366.049 967.759 365.86 968.696 366.566L1012.39 399.552L1066.21 358.089L1002.39 302.226C1001.4 301.592 1001.12 300.275 1001.75 299.288C1002.39 298.296 1003.7 298.014 1004.69 298.649L1070.98 356.102C1071.55 356.471 1071.92 357.093 1071.95 357.774C1071.99 358.385 1071.75 358.977 1071.32 359.403" fill="#141414"/><path id="Fill 16" fill-rule="evenodd" clip-rule="evenodd" d="M1003.09 398.56C1002.71 397.583 1003.15 396.478 1004.09 396.026C1005 395.595 1006.15 395.065 1007.5 394.44C1015.81 390.608 1033.09 382.636 1047.49 372.324C1047.5 372.314 1047.51 372.306 1047.52 372.296C1056 366.214 1061.79 358.546 1063.83 350.703C1063.99 350.08 1064.45 349.575 1065.05 349.339C1094.36 338.05 1115.54 329.893 1135.09 329.224C1138.53 329.108 1151.76 329.861 1153.75 335.687C1154.66 338.381 1153.08 341.215 1149.04 344.113C1134.3 354.69 1102.6 377.56 1074.63 397.739C1052 414.066 1032.45 428.165 1025.08 433.456C1024.3 434.014 1023.34 434.165 1022.39 433.882C1016.8 432.23 1007.03 408.63 1003.09 398.56" fill="#ff8333"/><path id="Fill 18" fill-rule="evenodd" clip-rule="evenodd" d="M1030.51 440.398L1157.94 348.971C1160.06 347.452 1160.54 344.503 1159.02 342.386L1158.11 341.119C1156.6 339.001 1153.65 338.516 1151.53 340.035L1024.1 431.462C1021.98 432.982 1021.5 435.93 1023.01 438.047L1023.92 439.315C1025.44 441.433 1028.39 441.918 1030.51 440.398" fill="#141414"/><path id="Fill 21" fill-rule="evenodd" clip-rule="evenodd" d="M1101.34 346.49C1101.99 346.026 1102.35 345.219 1102.2 344.385C1100.82 336.745 1107.03 334.401 1107.74 334.161C1108.85 333.784 1109.45 332.583 1109.08 331.472C1108.72 330.363 1107.53 329.758 1106.41 330.121C1102.79 331.302 1096.36 335.964 1098.01 345.137C1098.22 346.294 1099.32 347.061 1100.48 346.854C1100.8 346.796 1101.09 346.669 1101.34 346.49" fill="#141414"/><path id="Fill 23" fill-rule="evenodd" clip-rule="evenodd" d="M1083.1 353.277C1083.74 352.813 1084.1 352.006 1083.95 351.172C1082.58 343.532 1088.79 341.188 1089.5 340.948C1090.61 340.572 1091.21 339.37 1090.84 338.26C1090.47 337.151 1089.28 336.546 1088.17 336.908C1084.54 338.092 1078.12 342.754 1079.76 351.924C1079.97 353.081 1081.08 353.849 1082.23 353.64C1082.56 353.583 1082.85 353.456 1083.1 353.277" fill="#141414"/></g><g id="Pant"><path id="Fill 25" fill-rule="evenodd" clip-rule="evenodd" d="M821.956 83.3051C759.007 38.5781 644.084 -3.21289 644.084 -3.21289C644.084 -3.21289 468.558 -0.232891 429.335 -0.232891C423.905 50.3531 412.671 111.638 389.293 129.959C353.774 157.797 173.841 154.492 142.832 151.332C136.286 162.243 97.4938 252.447 106.147 324.266C118.671 341.608 443.094 321.197 507.838 276.194C549.047 247.549 568.959 216.501 583.407 175.921C587.536 162.97 591.33 149.89 594.946 136.76C598.824 122.615 602.537 108.405 606.034 94.1681L606.037 94.1581C606.272 93.1981 607.241 92.6121 608.201 92.8471C609.155 93.0811 609.741 94.0421 609.514 94.9971C606.112 109.319 602.507 123.566 598.726 137.784C597.476 142.459 596.195 147.126 594.895 151.79C623.055 164.859 692.725 189.157 727.903 221.521C794.843 283.106 900.17 417.356 909.614 421.403C974.511 393.714 1005.64 326.188 1020.03 299.624C1013.33 284.626 896.975 136.608 821.956 83.3051" fill="#141414"/><g id="line"><path fill-rule="evenodd" clip-rule="evenodd" d="M521.465 35.315C521.655 34.156 522.745 33.37 523.908 33.56C525.067 33.75 525.852 34.844 525.662 36.003C521.051 64.132 502.914 91.001 476.605 91.001C475.089 91.001 473.547 90.911 471.977 90.728C464.65 114.988 450.948 145.431 425.477 169.521C400.325 193.309 341.868 206.3 251.73 208.132C244.528 208.279 237.398 208.344 230.414 208.344C172.561 208.344 124.464 203.861 123.927 203.81C122.758 203.7 121.899 202.662 122.01 201.493C122.121 200.324 123.162 199.466 124.327 199.576C126.72 199.802 364.243 221.582 422.554 166.431C477.249 114.7 477.477 31.967 477.473 31.137C477.467 29.963 478.414 29.006 479.589 29H479.6C480.769 29 481.72 29.944 481.726 31.115C481.731 31.981 481.762 52.661 474.885 80.191C474.371 82.248 473.804 84.38 473.189 86.566C492.831 88.396 515.527 71.538 521.465 35.315ZM881.74 299.552C907.746 327.353 933.392 355.5 958.115 384.48C958.645 385.101 958.571 386.035 957.95 386.564C957.329 387.093 956.396 387.02 955.867 386.399L955.864 386.396C931.08 357.577 905.346 329.557 879.256 301.889C853.117 274.265 826.582 247.008 799.57 220.249C786.031 206.907 772.431 193.616 758.468 180.751C755.643 178.081 752.752 175.496 749.86 172.911C749.218 172.336 748.575 171.762 747.933 171.186C747.303 170.632 746.679 170.068 746.055 169.505C744.919 168.479 743.783 167.452 742.609 166.482L737.195 161.909C736.877 161.645 736.561 161.376 736.246 161.107C735.662 160.608 735.078 160.11 734.477 159.646L731.688 157.528C731.272 157.217 730.86 156.9 730.447 156.584C729.006 155.479 727.566 154.374 726 153.482C722.409 151.102 718.509 149.085 714.622 147.074C714.339 146.927 714.056 146.781 713.773 146.634C696.823 138.37 679.025 131.647 661.15 125.296C652.207 122.118 643.206 119.089 634.176 116.149C625.15 113.209 616.077 110.358 606.998 107.646L606.983 107.641C605.857 107.305 605.218 106.121 605.553 104.996C605.889 103.87 607.074 103.23 608.2 103.566C617.351 106.299 626.428 109.153 635.492 112.105C644.553 115.054 653.586 118.093 662.569 121.287C680.533 127.672 698.401 134.41 715.668 142.827C715.97 142.984 716.273 143.14 716.575 143.296C720.549 145.351 724.523 147.406 728.322 149.918C729.98 150.867 731.474 152.021 732.969 153.174C733.391 153.501 733.814 153.827 734.24 154.148L737.123 156.358C737.737 156.836 738.321 157.338 738.904 157.84C739.228 158.117 739.551 158.395 739.879 158.669L745.346 163.326C746.535 164.317 747.672 165.352 748.81 166.388C749.436 166.958 750.061 167.527 750.695 168.089C751.372 168.701 752.049 169.312 752.727 169.923C755.594 172.507 758.461 175.091 761.25 177.75C775.22 190.724 788.785 204.087 802.293 217.505C829.238 244.412 855.685 271.796 881.74 299.552Z" fill="white" style="mix-blend-mode:soft-light"/></g></g></g></g><g id="Upper Body" transform="translate(272 187) scale(1 1)"><g id="Upper Body/On Macbook"><g id="T Shirt"><path id="Fill 1" fill-rule="evenodd" clip-rule="evenodd" d="M162.181 260.449C162.185 260.785 162.194 261.107 162.197 261.446C162.255 267.151 161.899 276.275 161.279 287.232C152.253 287.175 143.887 286.552 139.712 284.749C144.908 277.475 153.459 268.668 162.181 260.449ZM406.789 393.85C405.649 299.96 409.623 199.196 371.281 137.717C328.842 69.6684 195.102 81.4044 147.841 121.884C124.329 138.22 88.4238 169.329 57.3728 222.144C34.3858 261.242 20.2348 337.082 55.1588 361.551C85.9818 376.881 126.447 379.568 157.123 377.932C156.527 384.04 155.966 389.454 155.47 393.85H406.789Z" fill="#ff8333"/><path id="Fill 3" fill-rule="evenodd" clip-rule="evenodd" d="M143.196 283.636C147.556 278.026 153.626 271.656 160.056 265.436C159.976 270.556 159.696 277.296 159.276 285.066C152.856 284.966 147.076 284.556 143.196 283.636ZM158.846 391.726C159.226 388.276 159.636 384.306 160.066 379.956C187.156 378.266 203.046 373.406 204.736 372.986C205.756 372.726 206.436 371.766 206.336 370.716L197.996 285.406C197.876 284.236 196.856 283.376 195.676 283.496C188.936 284.126 175.646 285.056 163.536 285.096C164.076 275.106 164.376 266.786 164.326 261.426V261.366C178.816 247.776 193.616 235.896 193.856 235.706C194.776 234.976 194.916 233.636 194.186 232.716C193.456 231.796 192.116 231.646 191.196 232.386C190.286 233.116 177.566 243.316 164.226 255.616C162.826 256.896 161.426 258.206 160.036 259.526C151.946 267.206 144.046 275.356 138.846 282.346C127.986 279.496 119.496 273.806 119.396 273.746C118.426 273.086 117.106 273.346 116.446 274.316C115.786 275.286 116.046 276.606 117.016 277.266C117.436 277.556 126.866 283.896 139.066 286.786C143.186 288.486 150.746 289.176 159.046 289.336C160.446 289.356 161.866 289.366 163.296 289.366C175.796 289.346 188.906 288.346 193.966 287.916L201.916 369.296C190.756 371.956 178.706 374.556 160.486 375.636C159.066 375.716 157.636 375.796 156.186 375.856C125.416 377.246 85.2758 374.106 56.2458 359.716C36.1758 345.526 35.3658 314.656 36.6658 297.496C38.6058 272.036 47.2458 243.576 59.2058 223.226C83.7158 181.536 111.446 153.386 133.526 135.446C138.946 131.026 144.026 127.236 148.636 124.016C155.596 117.936 164.646 112.456 175.146 107.796C199.256 97.0758 231.036 90.6658 262.836 91.2458C312.306 92.1558 351.176 109.506 369.476 138.846C403.356 193.166 403.896 279.626 404.416 363.246C404.466 372.606 404.526 382.256 404.636 391.726H158.846ZM373.087 136.596C354.016 106.006 313.856 87.9358 262.916 86.9958C236.766 86.5158 209.576 90.6958 186.366 98.7658C170.116 104.416 156.556 111.736 146.746 120.036C142.606 122.926 138.066 126.266 133.226 130.116C112.506 146.566 82.2058 175.706 55.5358 221.066C31.2058 262.466 18.4758 338.446 53.9358 363.296C54.0258 363.356 54.1158 363.406 54.2158 363.456C80.7758 376.666 111.346 380.526 137.976 380.526C142.716 380.526 151.326 380.406 155.766 380.186C155.266 385.286 154.786 389.826 154.356 393.616C154.286 394.216 154.476 394.816 154.886 395.266C155.286 395.716 155.866 395.976 156.466 395.976H406.786C407.356 395.976 407.906 395.746 408.306 395.346C408.696 394.936 408.926 394.396 408.916 393.826C408.796 383.686 408.726 373.276 408.666 363.216C408.146 279.016 407.606 191.936 373.087 136.596Z" fill="#141414"/></g><path id="Tie" fill-rule="evenodd" clip-rule="evenodd" d="M264.824 134.109L277.057 153.139L262.105 263.92L296.767 306.737L325.312 267.998L289.291 153.139L297.447 133.429L276.418 121.791L264.824 134.109Z" fill="#FFC81A"/><g id="Neck"><path id="Fill 6" fill-rule="evenodd" clip-rule="evenodd" d="M297.934 61.7372L300.06 85.9732C300.407 100.325 278.229 125.401 278.229 125.401C278.229 125.401 235.227 98.2632 234.891 84.3442L237.395 58.1262" fill="white"/><path id="Fill 8" fill-rule="evenodd" clip-rule="evenodd" d="M278.229 127.528C277.839 127.528 277.445 127.421 277.095 127.2C272.595 124.36 233.119 99.0308 232.766 84.3958C232.764 84.3108 232.767 84.2258 232.775 84.1418L235.279 57.9238C235.392 56.7548 236.432 55.9028 237.599 56.0088C238.768 56.1208 239.625 57.1588 239.514 58.3278L237.022 84.4078C237.164 87.3508 240.14 94.3088 257.979 108.404C266.194 114.894 274.478 120.426 277.823 122.609C279.734 120.341 283.671 115.514 287.544 109.834C294.445 99.7118 298.038 91.5038 297.937 86.0898L295.816 61.9238C295.714 60.7528 296.579 59.7218 297.749 59.6188C298.919 59.5198 299.951 60.3808 300.054 61.5508L302.18 85.7878C302.184 85.8328 302.187 85.8778 302.187 85.9228C302.55 100.936 280.751 125.761 279.823 126.81C279.407 127.281 278.821 127.528 278.229 127.528" fill="#141414"/><path id="Fill 13" fill-rule="evenodd" clip-rule="evenodd" d="M299.165 85.289C295.255 99.301 288.826 112.842 278.458 123.338C260.124 111.322 244.619 98.601 234.179 84.615C208.531 95.435 245.952 151.918 245.952 151.918C245.952 151.918 275.664 126.359 278.458 123.83C281.252 126.359 315.851 142.74 315.851 142.74C315.851 142.74 315.131 87.244 299.165 85.289" fill="white"/><path id="Fill 15" fill-rule="evenodd" clip-rule="evenodd" d="M281.462 123.273C286.23 126.034 300.198 132.934 313.644 139.338C313.018 119.812 309.151 92.1899 300.616 87.9259C296.335 102.299 289.9 114.172 281.462 123.273M233.541 87.2909C230.83 88.8209 229.043 91.1059 228.098 94.2339C225.854 101.667 228.494 113.74 235.732 129.149C239.794 137.797 244.269 145.257 246.423 148.706C252.147 143.78 269.444 128.888 275.284 123.791C256.587 111.338 242.898 99.3699 233.541 87.2909M245.95 154.045C245.853 154.045 245.756 154.039 245.658 154.025C245.054 153.941 244.515 153.602 244.177 153.093C243.103 151.472 217.942 113.155 224.026 93.0049C225.5 88.1269 228.637 84.6449 233.351 82.6559C234.252 82.2769 235.296 82.5589 235.881 83.3429C245.04 95.6119 258.877 107.807 278.15 120.588C286.621 111.533 292.997 99.4759 297.115 84.7169C297.398 83.7049 298.384 83.0489 299.422 83.1779C316.732 85.2979 317.9 136.842 317.975 142.712C317.985 143.446 317.616 144.133 316.999 144.529C316.379 144.926 315.601 144.976 314.939 144.662C309.698 142.18 285.527 130.686 278.638 126.507C272.419 131.954 248.447 152.576 247.337 153.531C246.949 153.865 246.456 154.045 245.95 154.045" fill="#141414"/></g><g id="Macbook"><path id="Fill 19" fill-rule="evenodd" clip-rule="evenodd" d="M436.792 343.93H223.965C217.89 343.93 212.965 337.885 212.965 330.43C212.965 322.974 217.89 316.93 223.965 316.93H436.792C442.867 316.93 447.792 322.974 447.792 330.43C447.792 337.885 442.867 343.93 436.792 343.93" fill="#141414"/><path id="Fill 23" fill-rule="evenodd" clip-rule="evenodd" d="M570.901 343.93H360.226C352.595 343.93 346.41 337.744 346.41 330.113V177.518C346.41 169.888 352.595 163.701 360.226 163.701H570.901C578.531 163.701 584.717 169.888 584.717 177.518V330.113C584.717 337.744 578.531 343.93 570.901 343.93" fill="#13D6C3"/><path id="Fill 43" fill-rule="evenodd" clip-rule="evenodd" d="M491.472 255.292C491.472 267.22 482.363 274.752 470.016 274.752C457.669 274.752 447.66 265.082 447.66 253.154C447.66 241.226 460.903 221.039 470.712 235.867C477.525 246.164 491.472 243.364 491.472 255.292" fill="white"/><path id="Fill 45" fill-rule="evenodd" clip-rule="evenodd" d="M462.957 232.742C462.276 232.742 461.752 232.9 461.435 232.995C455.434 234.801 449.785 245.882 449.785 253.154C449.785 263.89 458.859 272.625 470.014 272.625C481.575 272.625 489.343 265.659 489.343 255.292C489.343 250.169 486.504 248.62 481.062 246.109C476.929 244.2 472.243 242.038 468.936 237.04C466.569 233.461 464.408 232.742 462.957 232.742M470.014 276.878C456.515 276.878 445.531 266.236 445.531 253.154C445.531 244.179 452.079 231.368 460.209 228.923C462.841 228.13 467.94 227.825 472.483 234.693C475.123 238.683 479.049 240.495 482.845 242.247C488.131 244.686 493.597 247.209 493.597 255.292C493.597 268.002 483.898 276.878 470.014 276.878" fill="#141414"/></g><g id="Hand"><path id="Fill 47" fill-rule="evenodd" clip-rule="evenodd" d="M196.102 288.725C212.107 285.487 249.717 280.561 283.156 276.453C345.601 268.78 350.199 309.648 334.029 304.158C323.254 300.499 316.355 301.353 308.135 300.881C317.19 302.322 321.304 308.245 318.938 312.005C315.62 317.277 293.089 307.8 268.427 320.588C246.533 331.941 219.073 349.429 202.632 352.012L196.102 288.725Z" fill="white"/><path id="Fill 49" fill-rule="evenodd" clip-rule="evenodd" d="M198.418 290.437L204.511 349.487C216.316 346.845 233.252 337.456 249.664 328.357C255.898 324.9 261.787 321.636 267.45 318.7C283.106 310.582 297.848 311.149 307.602 311.522C311.574 311.674 316.515 311.863 317.14 310.872C317.58 310.172 317.584 309.333 317.151 308.379C316.27 306.435 313.292 303.854 307.802 302.981C306.683 302.803 305.9 301.779 306.022 300.653C306.144 299.526 307.126 298.685 308.258 298.758C310.082 298.862 311.883 298.901 313.625 298.939C319.743 299.072 326.07 299.208 334.714 302.144C335.846 302.528 337.914 302.975 339.036 301.646C340.133 300.347 340.34 297.375 338.333 293.666C332.974 283.761 315.733 274.593 283.417 278.563C240.899 283.787 212.331 287.778 198.418 290.437M202.634 354.138C202.168 354.138 201.711 353.984 201.336 353.696C200.874 353.34 200.578 352.81 200.519 352.229L193.988 288.943C193.876 287.854 194.608 286.857 195.682 286.64C208.897 283.966 238.241 279.829 282.898 274.342C299.07 272.353 312.777 273.376 323.642 277.377C332.271 280.556 338.815 285.621 342.073 291.641C344.718 296.528 344.799 301.413 342.286 304.39C340.278 306.768 337.022 307.42 333.347 306.171C327.594 304.218 323.022 303.601 318.66 303.36C319.684 304.338 320.486 305.435 321.025 306.623C322.04 308.862 321.936 311.236 320.739 313.137C318.807 316.208 314.285 316.034 307.439 315.772C298.131 315.416 284.066 314.874 269.408 322.475C263.797 325.385 257.934 328.635 251.726 332.077C233.938 341.938 215.544 352.136 202.964 354.112C202.854 354.129 202.744 354.138 202.634 354.138" fill="#141414"/></g><g id="Finger"><path id="Fill 1" fill-rule="evenodd" clip-rule="evenodd" d="M498.704 339.365C498.066 337.009 496.246 333.272 492.454 332.455C487.371 331.361 485.034 335.533 484.801 340.057C484.579 339.219 484.302 338.343 483.957 337.42C481.113 329.81 472.116 330.995 470.903 336.619C470.433 338.795 470.324 340.915 470.478 342.858C468.932 337.953 464.893 333.995 460.369 335.234C456.982 336.162 455.084 339.47 455.206 343.964C454.046 341.615 451.892 339.792 449.385 339.496C445.467 339.034 441.449 343.354 443.84 350.86C445.594 356.366 452.329 355.592 454.856 351.887C455.509 350.929 455.882 349.89 456.033 348.835C456.281 349.663 456.574 350.508 456.938 351.372C459.235 356.822 468.705 356.344 470.596 350.659C471.032 349.346 471.195 347.938 471.134 346.523C471.84 349.001 472.995 350.9 474.287 351.792C478.549 354.733 485.199 352.834 485.469 345.26C486.143 347.309 487.291 348.954 488.839 349.544C495.498 352.082 500.965 347.713 498.704 339.365" fill="white"/><path id="Fill 3_2" fill-rule="evenodd" clip-rule="evenodd" d="M495.428 347.276C494.037 348.471 491.947 348.589 489.694 347.597C488.251 346.963 486.485 341.322 487.853 337.098C488.55 334.942 489.731 334.403 490.888 334.4C491.269 334.4 491.647 334.457 492.004 334.534C495.224 335.227 496.439 339.141 496.651 339.921C497.517 343.122 497.06 345.872 495.428 347.276M481.281 350.046C479.683 351.292 477.303 351.291 475.493 350.042C474.656 349.464 473.8 348.082 473.226 346.176C473.15 344.941 472.932 343.695 472.575 342.485C472.465 340.825 472.566 338.991 472.981 337.068C473.403 335.11 475.191 334.297 476.593 334.195C476.676 334.189 476.778 334.184 476.895 334.184C478.031 334.182 480.629 334.594 481.964 338.165C484.02 343.667 483.765 348.109 481.281 350.046M468.576 349.987C467.856 352.151 465.511 353.002 463.722 353.071C462.01 353.138 459.726 352.516 458.896 350.546C457.133 346.359 456.827 342.32 458.081 339.74C458.704 338.458 459.662 337.632 460.929 337.285C463.101 336.692 464.847 337.934 465.935 339.08C467.039 340.246 467.862 341.749 468.384 343.347C468.498 344.553 468.706 345.697 468.991 346.762C469.026 347.891 468.907 348.993 468.576 349.987M452.88 351.097C452.439 352.199 451.052 352.922 449.47 352.875C448.631 352.844 446.6 352.524 445.864 350.214C444.878 347.12 445.077 344.42 446.408 342.806C447.055 342.023 447.913 341.591 448.803 341.589C448.913 341.589 449.024 341.595 449.134 341.608C450.673 341.79 451.655 342.933 452.204 343.859C453.442 345.941 453.726 348.984 452.88 351.097M500.755 338.809V338.808C500.3 337.129 498.388 331.558 492.901 330.376C489.236 329.588 486.229 330.948 484.555 334.039C482.598 331.269 479.568 329.718 476.284 329.953C472.624 330.219 469.674 332.649 468.871 336.012C466.265 333.352 462.975 332.315 459.806 333.183C457.34 333.858 455.421 335.483 454.256 337.881C454.056 338.294 453.89 338.733 453.74 339.181C452.545 338.188 451.151 337.563 449.631 337.384C447.202 337.098 444.769 338.112 443.128 340.099C440.859 342.85 440.379 347.007 441.812 351.505C442.875 354.843 445.75 356.996 449.315 357.125C449.43 357.13 449.545 357.131 449.66 357.131C452.324 357.126 454.709 355.923 456.077 354.005C457.734 356.084 460.421 357.336 463.47 357.33C463.609 357.33 463.748 357.326 463.888 357.321C467.488 357.181 470.539 355.385 472.038 352.636C472.373 352.984 472.72 353.295 473.078 353.543C474.736 354.686 476.627 355.255 478.491 355.25C480.42 355.246 482.321 354.628 483.896 353.4C484.601 352.85 485.589 351.876 486.369 350.354C486.857 350.838 487.391 351.231 487.981 351.49C489.541 352.177 491.114 352.515 492.607 352.512C494.708 352.507 496.657 351.829 498.2 350.5C501.106 348.002 502.061 343.631 500.755 338.809" fill="#141414"/></g></g></g><g id="Head" transform="translate(439 92) scale(1 1)"><g id="Head/Bun 1"><path id="SKIN" fill-rule="evenodd" clip-rule="evenodd" d="M149.882 102.094C143.885 52.3538 111.153 49.4878 87.5365 53.7808C68.7135 57.2038 44.6345 72.7648 46.7665 104.073C37.3415 101.013 30.4605 106.742 29.2365 114.189C27.8495 122.64 32.2855 136.935 46.2375 134.473C49.2925 158.699 66.0495 186.607 111.579 181.938C146.05 178.402 155.34 147.368 149.882 102.094" fill="white"/><path id="Combined Shape" fill-rule="evenodd" clip-rule="evenodd" d="M48.2218 134.223C50.0038 147.852 56.1648 161.361 67.2638 169.967C80.2308 182.118 123.203 187.006 138.219 166.456C150.998 153.433 152.906 108.249 143.117 82.1546C136.341 82.9006 125.94 83.7646 116.458 83.3946C114.284 80.3254 111.939 74.4372 110.251 70.2005C109.438 68.1591 108.778 66.5011 108.363 65.7266C107.149 67.3883 108.797 76.1561 109.788 81.4324C109.982 82.462 110.15 83.3587 110.268 84.0436C97.0758 90.4936 68.8828 93.7306 53.0198 90.8096C52.8477 93.8559 53.3909 97.1587 53.8662 100.049C54.9346 106.546 55.6603 110.959 47.1488 105.69C33.7148 97.3736 26.8068 119.976 36.0728 128.937C41.1758 133.873 44.9738 134.217 48.2218 134.223ZM68.0298 20.0796C63.1798 22.1526 50.3648 27.8466 50.1838 33.2466C71.0618 15.7416 140.214 7.6086 161.314 70.6596C168.06 92.5106 172.203 170.211 170.874 177.185C159.948 179.461 143.566 181.963 128.953 181.631C128.698 180.908 128.536 180.137 128.41 179.347C110.504 187.697 84.463 186.383 69 176C69.4059 179.508 69.358 181.906 69.3227 183.671C69.2949 185.064 69.275 186.062 69.4918 186.9C54.2508 189.358 31.6008 183.212 31.6008 183.212C31.6008 183.212 -7.27916 103.685 29.5848 57.1906C20.9498 55.1986 2.86084 42.6746 15.1488 16.7706C24.6558 -3.2704 58.7758 -3.6294 68.0298 20.0796ZM43.8325 118.933C43.6189 119.964 43.4228 120.91 42.3775 120.698C39.1875 120.05 38.7805 115.497 41.6905 114.023C44.0785 112.814 44.8125 115.511 44.0495 118.022C43.9606 118.314 43.8958 118.627 43.8325 118.933Z" fill="#141414"/></g></g><g id="Face" transform="translate(499 178) scale(1 1)"><g id="Face/Normal Face 2"><path id="Normal face 2" fill-rule="evenodd" clip-rule="evenodd" d="M78.6678 13.3124C77.5278 11.8974 76.0488 10.6384 74.3148 9.74741C72.5888 8.83741 70.6498 8.37241 68.7778 8.15441C66.8968 7.94241 65.0538 7.96141 63.2758 8.13341C61.4978 8.30741 59.7718 8.58841 58.0678 8.89041C57.8938 8.92241 57.7018 8.97341 57.5288 9.03641C55.9038 9.63541 55.0728 11.4394 55.6718 13.0644C56.2718 14.6894 58.0748 15.5204 59.6998 14.9214C61.1678 14.3794 62.6468 13.9194 64.1118 13.5884C65.5758 13.2594 67.0288 13.0184 68.4248 13.0444C71.2348 13.0974 73.6308 14.1784 75.9948 15.9984L76.0218 16.0194C76.7028 16.5434 77.6788 16.5554 78.3788 15.9914C79.1978 15.3314 79.3278 14.1314 78.6678 13.3124ZM26.5348 10.7451C27.8138 10.7087 29.0491 10.6735 30.2504 10.5639C31.9014 10.4139 33.3624 11.6309 33.5124 13.2829C33.6624 14.9339 32.4454 16.3949 30.7934 16.5439C30.7254 16.5509 30.6564 16.5549 30.5884 16.5559L30.5414 16.5569C28.6041 16.5948 26.7364 16.4748 24.9549 16.3603L24.9549 16.3603C23.4912 16.2662 22.0856 16.1758 20.7474 16.1799C19.2624 16.1819 17.8524 16.3239 16.4984 16.6889C15.1454 17.0589 13.8434 17.6039 12.4334 18.2039L12.3614 18.2339C11.4994 18.6019 10.5024 18.1999 10.1354 17.3379C9.86637 16.7059 10.0124 16.0009 10.4484 15.5249C11.6784 14.1879 13.2804 13.1399 15.0244 12.4399C16.7654 11.7229 18.6144 11.3109 20.3944 11.0869C21.9192 10.8953 23.3965 10.8464 24.8169 10.7993L24.8169 10.7993L24.817 10.7993C25.0574 10.7914 25.2962 10.7835 25.5334 10.7749C25.8702 10.764 26.2039 10.7545 26.5347 10.7451L26.5348 10.7451ZM66.0818 30.3932C65.6738 27.5712 67.4098 24.9832 69.9618 24.6142C72.5128 24.2452 74.9108 26.2342 75.3188 29.0562C75.7278 31.8792 73.9908 34.4662 71.4408 34.8352C68.8888 35.2042 66.4898 33.2152 66.0818 30.3932ZM48.6647 56.9164C48.2147 56.8144 47.8807 56.7204 47.3057 56.4744C46.5957 56.1714 46.2657 55.3504 46.5697 54.6404C46.7477 54.2224 47.1067 53.9364 47.5157 53.8334L48.0587 53.7004C48.2797 53.6464 48.7597 53.6634 49.1197 53.6824L49.2238 53.6894C49.5738 53.7128 49.8236 53.7295 50.1867 53.7304C50.9187 53.7374 51.6387 53.6824 52.3197 53.5634C53.6837 53.3234 54.8547 52.7604 55.4057 52.0114C55.6897 51.6364 55.8617 51.1994 55.9297 50.6594C56.0027 50.1344 55.9627 49.4604 55.8247 48.9954C55.5757 48.0634 54.8177 47.2804 53.6557 46.5034C53.0877 46.1224 52.4497 45.7684 51.7667 45.4554L51.5137 45.3344L51.3567 45.2604C51.2017 45.1854 51.0047 45.0564 50.9157 44.9784C50.8197 44.8964 50.7227 44.8044 50.6407 44.7134L50.4757 44.5034C50.1816 44.0661 50.0961 43.8105 50.0152 43.5686C49.9984 43.5184 49.9819 43.4689 49.9637 43.4184C49.7987 42.8724 49.7167 42.4184 49.6427 41.9674C49.3707 40.1914 49.2827 38.5434 49.1977 36.8714C49.0357 33.5424 49.0307 30.2574 49.1067 26.9454C49.1247 26.1664 49.7697 25.5494 50.5487 25.5674C51.2857 25.5844 51.8787 26.1634 51.9247 26.8864L51.9257 26.9054C52.1227 30.1454 52.3497 33.4104 52.6527 36.6194C52.8167 38.2124 53.0017 39.8344 53.3067 41.2864C53.3627 41.5454 53.4267 41.7874 53.4917 41.9994C54.2557 42.3124 55.0207 42.6744 55.7797 43.1254C56.5897 43.6244 57.4147 44.2214 58.1257 45.0504C58.8487 45.8574 59.4137 46.9404 59.6617 48.0494C59.9067 49.1754 59.9107 50.1734 59.7377 51.2644C59.5637 52.3424 59.0947 53.4764 58.3417 54.3734C57.5967 55.2774 56.6387 55.9174 55.6837 56.3264C54.7197 56.7354 53.7547 56.9374 52.8127 57.0494C51.8707 57.1544 50.9467 57.1614 50.0427 57.0944C49.6217 57.0664 49.0677 57.0134 48.6647 56.9164ZM61.1112 69.5312L61.0952 69.5392C57.2432 71.4512 52.7582 71.8822 48.5372 71.3392C46.4512 71.1012 44.4252 70.5622 42.5902 69.6642C41.6692 69.2282 40.7902 68.7112 39.9862 68.1162C39.5832 67.8202 39.1982 67.5062 38.8352 67.1812C38.7863 67.1346 38.7368 67.0883 38.6874 67.042C38.5609 66.9237 38.4351 66.806 38.3222 66.6852C38.1692 66.5362 37.9802 66.3152 37.9372 66.2582C37.8892 66.1932 37.8362 66.1272 37.7812 66.0672C36.8542 65.0412 35.2702 64.9612 34.2442 65.8882C33.2182 66.8152 33.1392 68.3982 34.0662 69.4242L34.0882 69.4482C34.4272 69.8242 34.6382 70.0202 34.9082 70.2632C35.1152 70.4549 35.3256 70.6276 35.536 70.8004C35.5857 70.8413 35.6355 70.8821 35.6852 70.9232C36.2112 71.3362 36.7482 71.7192 37.3002 72.0722C38.4032 72.7812 39.5662 73.3672 40.7642 73.8452C43.1542 74.8272 45.6972 75.3262 48.2112 75.4512C50.7132 75.5762 53.1742 75.2872 55.5922 74.7232C58.0002 74.1412 60.3322 73.1982 62.4272 71.8642C62.9962 71.4992 63.2152 70.7542 62.9092 70.1362C62.5792 69.4722 61.7742 69.2012 61.1112 69.5312ZM16.7508 30.7827C17.1588 27.9607 19.5578 25.9717 22.1088 26.3407C24.6598 26.7097 26.3968 29.2967 25.9888 32.1187C25.5808 34.9417 23.1818 36.9297 20.6298 36.5617C18.0798 36.1927 16.3428 33.6047 16.7508 30.7827Z" fill="#141414"/></g></g><g id="Accessories" transform="translate(491 176) scale(103 60)"><g id="Accessories/None" stroke="none" stroke-width="1" fill="none" fill-rule="evenodd" fill-opacity="0"/></g><g id="Facial Hair" transform="translate(501 234) scale(90 60)"><g id="Facial Hair/None" stroke="none" stroke-width="1" fill="none" fill-rule="evenodd" fill-opacity="0"/></g></g></g><g id="Master/Character/Standing" transform="matrix(-1 0 0 1 2368 433) scale(1 1)"><g id="Master/Character/Standing"><g id="Lower Body" transform="translate(0 569) scale(1 1)"><g id="Lower Body/Fat Pant"><g id="Group"><g id="Assets 46"><path id="SKIN" fill-rule="evenodd" clip-rule="evenodd" d="M469.221 597L479.493 692.789L529.827 689.728L539.203 598.39L469.221 597Z" fill="white"/><path id="Fill 14" fill-rule="evenodd" clip-rule="evenodd" d="M536.363 605.21L527.908 687.577L481.378 690.407L472.24 605.199C472.117 604.055 471.208 603.192 470.127 603.192C468.857 603.192 467.87 604.369 468.014 605.713L477.38 693.047C477.503 694.195 478.418 695.053 479.491 695.053C479.532 695.053 479.573 695.052 479.614 695.05L529.947 691.989C530.985 691.925 531.827 691.073 531.941 689.975L540.592 605.702C540.729 604.362 539.743 603.192 538.477 603.192C537.392 603.192 536.481 604.062 536.363 605.21" fill="#141414"/></g><g id="Assets 47"><path id="SKIN_2" fill-rule="evenodd" clip-rule="evenodd" d="M581.872 560L585.798 684.49L642.932 689.42L668.246 595.745L581.872 560Z" fill="white"/><path id="Fill 2" fill-rule="evenodd" clip-rule="evenodd" d="M664.586 601.104L641.365 687.031L587.86 682.415L584.253 574.123C584.206 572.707 582.945 571.69 581.64 572.015C580.651 572.261 579.965 573.209 580.001 574.281L583.672 684.563C583.709 685.704 584.548 686.634 585.625 686.727L642.758 691.658C642.816 691.663 642.875 691.666 642.933 691.666C643.874 691.666 644.714 691.007 644.976 690.037L668.676 602.336C669.052 600.944 668.101 599.544 666.731 599.476C665.745 599.428 664.857 600.101 664.586 601.104" fill="#141414"/></g><g id="Assets 48"><path id="Fill 4" fill-rule="evenodd" clip-rule="evenodd" d="M578.83 676.481C579.088 675.41 580.088 674.732 581.121 674.926C582.105 675.112 583.349 675.364 584.815 675.662C593.796 677.483 612.485 681.273 630.196 681.287H630.242C640.675 681.287 643.762 676.949 649.991 671.487C650.485 671.053 651.148 670.898 651.774 671.067C682.171 679.405 710.223 686.761 726.499 698.197C729.36 700.208 739.676 708.983 737.892 715.188C737.066 718.058 734.128 719.513 729.159 719.513C711.014 719.513 671.923 719.619 637.434 719.714C609.528 719.791 585.427 719.858 576.353 719.858C575.395 719.858 574.529 719.399 573.916 718.568C570.343 713.726 576.162 687.521 578.83 676.481" fill="#02bad3"/><path id="Fill 6" fill-rule="evenodd" clip-rule="evenodd" d="M576.719 729.136H733.555C736.162 729.136 738.275 726.911 738.275 724.164V722.522C738.275 719.775 736.162 717.549 733.555 717.549H576.719C574.113 717.549 572 719.775 572 722.522V724.164C572 726.911 574.113 729.136 576.719 729.136" fill="#141414"/><path id="Fill 8" fill-rule="evenodd" clip-rule="evenodd" d="M689.015 692.251C689.81 692.251 690.572 691.78 690.936 690.973C694.273 683.589 700.684 685.396 701.405 685.629C702.523 685.986 703.713 685.328 704.06 684.152C704.407 682.974 703.793 681.725 702.678 681.352C699.042 680.137 691.104 680.181 687.097 689.047C686.592 690.165 687.042 691.5 688.102 692.033C688.397 692.181 688.708 692.251 689.015 692.251" fill="#141414"/><path id="Fill 10" fill-rule="evenodd" clip-rule="evenodd" d="M670.234 686.854C671.029 686.854 671.791 686.383 672.155 685.576C675.493 678.193 681.904 680 682.623 680.232C683.742 680.591 684.932 679.931 685.279 678.755C685.626 677.577 685.011 676.329 683.897 675.956C680.257 674.741 672.321 674.787 668.316 683.65C667.811 684.768 668.261 686.104 669.321 686.636C669.616 686.785 669.927 686.854 670.234 686.854" fill="#141414"/></g><g id="Assets 49"><path id="Fill 16" fill-rule="evenodd" clip-rule="evenodd" d="M475.235 669.523C475.235 669.523 445.759 696.202 459.785 716.602C478.366 722.093 522.775 727.194 542.493 717.318C556.315 710.395 534.457 669 534.457 669C512.205 671.344 495.958 670.226 475.235 669.523" fill="#02bad3"/><path id="Fill 18" fill-rule="evenodd" clip-rule="evenodd" d="M548.261 721.296C548.053 725.297 544.017 727.787 539.734 727.787H463.406C458.899 727.787 455.867 723.534 456.664 718.964C457.46 714.396 458.784 714.789 461.784 714.789L539.734 715.22C542.936 715.22 548.491 716.863 548.261 721.296" fill="#141414"/><path id="Fill 20" fill-rule="evenodd" clip-rule="evenodd" d="M479.825 699.591C479.065 699.591 478.339 699.131 478.003 698.356C477.546 697.298 477.988 696.05 478.992 695.567C479.792 695.181 498.811 686.227 520.03 692.734C521.091 693.06 521.7 694.228 521.392 695.346C521.083 696.463 519.973 697.108 518.913 696.78C499.159 690.728 480.834 699.314 480.651 699.401C480.383 699.529 480.102 699.591 479.825 699.591" fill="#141414"/><path id="Fill 22" fill-rule="evenodd" clip-rule="evenodd" d="M485.937 685.621C485.158 685.621 484.417 685.139 484.094 684.336C483.664 683.266 484.136 682.03 485.152 681.575C485.789 681.29 500.885 674.677 514.138 681.37C515.134 681.873 515.554 683.133 515.076 684.182C514.599 685.232 513.404 685.674 512.408 685.171C500.809 679.31 486.854 685.392 486.715 685.455C486.461 685.568 486.197 685.621 485.937 685.621" fill="#141414"/></g><g id="Pant"><path id="Fill 24" fill-rule="evenodd" clip-rule="evenodd" d="M390.562 241.043C414.443 462.886 407.742 624.366 407.742 624.366C455.956 632.36 503.27 632.39 548.975 618.187L560 151.184L617 295.171C617 295.171 551.091 542.515 562.527 563.269C573.962 584.023 673.866 626.838 700.712 610.773C711.819 604.125 771.767 399.254 769 280.348C767.553 218.152 663.06 46.4052 656 0.845087C622.389 -3.30617 439.298 0.844769 439.298 0.844769C439.298 0.844769 370.861 58.0371 390.562 241.043Z" fill="#141414"/><path id="Fill 27" fill-rule="evenodd" clip-rule="evenodd" d="M555.611 29.8584C559.902 33.024 569.463 39.1984 585.413 45.0722C591.118 47.1728 594.162 46.852 595.037 45.9383C595.628 45.321 595.349 44.0516 595.129 43.3497C593.403 37.8348 584.081 29.1744 571.067 27.2581C566.424 26.5774 561.119 27.6954 555.611 29.8584M540.007 25.4954C537.021 25.4954 533.54 27.2825 530.638 28.7742C518.634 34.9392 508.784 48.3734 507.88 54.839C510.301 53.8618 515.744 49.9053 520.622 46.3586C528.58 40.5716 538.112 33.6391 547.672 28.8039C545.968 27.5038 544.074 26.5107 541.944 25.7918C541.332 25.5864 540.682 25.4954 540.007 25.4954M536.231 76.6127C535.99 76.6127 535.745 76.5661 535.507 76.4677C534.478 76.0442 533.968 74.8182 534.368 73.7277C539.159 60.6694 545.934 41.6494 548.537 33.1076C539.346 37.8793 530.127 44.5842 522.885 49.8492C512.014 57.7558 508.115 60.4121 505.431 58.9151C504.826 58.5784 503.812 57.7187 503.812 55.7474C503.812 46.8805 516.469 31.3438 528.892 24.9628C533.089 22.8083 538.318 20.1245 543.158 21.7581C546.515 22.8888 549.349 24.6029 551.778 26.8632C558.69 23.8406 565.503 22.1604 571.617 23.0645C585.646 25.1301 596.518 34.3241 598.925 42.0178C600.117 45.8292 598.76 48.0007 597.845 48.9546C595.41 51.4955 590.786 51.5336 584.099 49.0711C572.605 44.8393 564.352 40.4827 558.876 37.0937C562.994 45.9288 565.383 57.9612 567.898 72.5843C568.095 73.7351 567.376 74.8372 566.289 75.0479C565.211 75.2544 564.161 74.4953 563.963 73.3434C560.66 54.1296 557.646 41.552 552.461 33.9525C549.111 45.1697 539.383 71.7553 538.097 75.2618C537.789 76.0992 537.032 76.6117 536.231 76.6127" fill="white"/></g></g></g></g><g id="Upper Body" transform="translate(272 187) scale(1 1)"><g id="Upper Body/Coffee"><g id="Assets 106"><path id="SKIN" fill-rule="evenodd" clip-rule="evenodd" d="M485.923 328.636C451.083 271.416 412.812 202.099 412.812 202.099C412.812 202.099 368.963 260.068 369.001 291C369.015 302.123 417.127 365.234 441.295 390.392C441.455 390.834 441.659 391.177 441.914 391.397C442.834 392.192 443.742 392.993 444.646 393.797C446.075 395.211 447.443 396.513 448.73 397.675L448.791 397.566C479.031 425.655 499.748 458.102 509.492 474.313C518.981 490.1 525.738 485.131 525.268 478.816C525.268 478.816 531.237 492.396 537.776 490.565C541.861 489.422 542.853 486.531 540.096 476.473C540.096 476.473 547.578 490.16 554.275 487.971C560.492 485.94 555.784 476.348 552.507 468.358C552.507 468.358 564.458 480.293 569.106 472.784C573.706 465.352 556.631 442.557 549.631 433.07C560.265 440.521 574.45 439.285 571.402 432.994C567.799 425.557 521.935 380.219 485.923 328.636Z" fill="white"/><path id="Fill 3" fill-rule="evenodd" clip-rule="evenodd" d="M573.316 432.066C553.221 407.399 515.55 367.992 487.517 327.216C487.316 326.923 485.843 324.83 485.504 324.297C449.905 268.205 414.938 201.847 414.582 201.168C414.067 200.191 412.86 199.813 411.88 200.328C410.903 200.842 410.527 202.051 411.041 203.029C411.397 203.705 445.959 269.299 481.396 325.286C481.948 326.157 483.199 328.323 483.557 328.839C511.937 369.707 548.953 409.556 569.488 433.922C570.156 437.74 557.923 436.493 550.85 431.328C548.855 430.082 546.839 429.12 544.507 428.641C542.401 427.988 540.092 429.139 538.042 429.896C530.33 432.743 522.425 426.053 521.863 425.822C521.396 425.63 521.158 425.097 520.852 424.687C520.038 423.556 518.274 424.776 518.991 425.934C523.755 433.35 534.237 434.664 542.192 432.801C544.201 432.784 546.802 433.797 548.425 435.02C554.016 442.591 571.031 465.631 567.296 471.665C564.039 475.92 557.466 469.808 554.185 467.022L543.976 449.981C543.515 449.212 542.518 448.961 541.749 449.422C541.003 449.868 540.748 450.821 541.15 451.58C541.15 451.58 550.581 469.264 550.582 469.264C552.316 474.482 557.99 483.721 553.613 485.95C545.05 486.681 536.215 463.704 531.67 457.575C530.648 455.735 527.761 457.306 528.756 459.166L538.1 477.244C540.879 487.483 539.011 488.011 537.202 488.518C533.616 489.522 528.923 481.837 527.213 477.959C527.203 477.945 521.097 464.491 521.088 464.475C520.328 462.736 517.602 463.84 518.267 465.62L523.151 479.211C522.735 485.977 517.148 482.694 511.312 473.217C508.608 465.672 476.692 422.981 458.502 404.27C455.411 401.09 450.273 396.38 450.089 396.21C426.054 373.906 386.316 320.9 381.507 304.732C381.193 303.673 380.083 303.07 379.02 303.385C377.962 303.7 377.359 304.813 377.673 305.872C382.894 323.428 423.265 376.115 445.934 397.78C445.936 397.795 445.937 397.809 445.94 397.824C468.203 418.2 488.971 444.303 507.668 475.41C515.866 488.284 521.417 489.158 525.89 484.491C528.569 488.785 533.069 494.091 538.349 492.613C542.25 491.521 543.746 489.033 543.772 485.243C553.474 496.091 563.81 488.107 557.476 474.927C561.813 477.712 567.913 478.945 570.913 473.903C574.955 467.378 566.986 453.648 556.464 438.854C564.916 441.585 576.21 441.14 573.316 432.066" fill="#141414"/></g><path id="T Shirt" fill-rule="evenodd" clip-rule="evenodd" d="M112.998 217C107.816 231.031 108.056 238.078 105.938 248.405C131.941 265.156 164.058 265.647 179.054 267.082C154.486 347.645 153.833 393.948 153.833 393.948L394.999 395C394.999 395 380.004 311.533 376.931 269.966C376.823 265.028 417.216 235.714 429.533 208.939C418.589 186.004 393.226 151.14 389.85 146.535C365.998 114 315.999 82 249.999 93C196.999 100 153.998 106 112.998 217Z" fill="#02bad3"/><g id="neck"><path id="SKIN_2" fill-rule="evenodd" clip-rule="evenodd" d="M317.63 107.895C312.58 96.527 301.969 93.952 298.255 93.389L295.022 63L245.949 66.569C245.949 66.569 243.12 76.997 241.818 90.264C235.377 90.851 219.35 93.237 214.892 102.618C213.956 113.007 229.537 154.143 247.172 155.073C253.854 155.426 271.865 142.938 276.349 133.347C277.511 133.748 278.083 133.971 278.342 134.095C278.505 134.005 278.781 133.85 279.142 133.64C279.197 133.75 279.24 133.856 279.297 133.967C284.885 142.96 293.965 157.767 300.559 156.625C317.96 153.614 319.789 118.1 317.63 107.895" fill="white"/><path id="Fill 9" fill-rule="evenodd" clip-rule="evenodd" d="M309.052 148.299C306.594 151.927 303.622 154.066 300.219 154.654C295.358 155.501 286.74 142.132 282.033 134.578C294.136 126.552 300.311 118.225 301.418 108.486C301.943 103.864 301.709 98.7502 301.48 95.7232C305.007 96.6522 311.659 99.5522 315.716 108.513C317.313 116.487 316.425 137.416 309.052 148.299M247.279 153.076C243.33 152.867 239.136 150.235 234.817 145.25C223.82 132.563 216.544 110.152 216.862 103.147C221.016 94.9892 232.43 93.2472 236.927 92.8762C237.769 98.5492 242.984 114.286 273.712 134.039C268.335 142.966 252.372 153.328 247.279 153.076M319.588 107.481C314.586 94.8802 303.062 91.7772 300.116 91.3792C300.088 90.8142 300.063 90.5022 300.063 90.5022L297.577 65.4832L293.633 66.2402L297.604 106.205C297.561 106.821 297.511 107.434 297.443 108.034C296.808 113.62 294.126 122.212 278.229 132.277C278.18 132.308 278.14 132.347 278.095 132.382C277.937 132.094 277.71 131.84 277.415 131.654C255.666 117.963 246.828 106.387 243.234 99.1112C243.651 86.3612 246.109 72.8062 247.281 66.9672L243.313 66.3672C242.397 70.9002 240.798 79.5892 239.877 89.1112C239.552 88.8982 239.173 88.7762 238.778 88.7762H238.776C237.979 88.7772 219.178 88.9402 213.087 101.759C212.986 101.973 212.923 102.203 212.902 102.439C212.157 110.698 220.502 134.842 231.794 147.87C236.853 153.707 241.992 156.802 247.068 157.07C247.2 157.077 247.335 157.081 247.471 157.081C255.912 157.08 272.821 143.918 277.674 135.141L277.863 135.446C285.481 147.711 292.896 158.689 299.809 158.689C300.175 158.689 300.539 158.658 300.901 158.596C305.416 157.815 309.273 155.105 312.364 150.543C320.536 138.479 321.422 116.094 319.588 107.481" fill="#141414"/></g><g id="coffee"><path id="Fill 11" fill-rule="evenodd" clip-rule="evenodd" d="M301.629 278.939H348.29C353.348 278.939 358.467 195.888 358.467 195.888H290.055C290.055 195.888 294.911 278.939 301.629 278.939" fill="#13D6C3"/><path id="Fill 13" fill-rule="evenodd" clip-rule="evenodd" d="M361.211 180.599L357.135 176.336H291.39L287.315 180.599L284.5 199.141H364.026L361.211 180.599Z" fill="white"/><path id="Fill 15" fill-rule="evenodd" clip-rule="evenodd" d="M286.827 197.141H361.701L359.329 181.524L356.281 178.336H292.246L289.198 181.524L286.827 197.141ZM364.027 201.141H284.5C283.917 201.141 283.364 200.887 282.984 200.445C282.604 200.003 282.435 199.417 282.523 198.841L285.338 180.299C285.4 179.892 285.585 179.514 285.869 179.217L289.945 174.954C290.323 174.559 290.845 174.336 291.391 174.336H357.136C357.682 174.336 358.204 174.559 358.581 174.954L362.657 179.217C362.941 179.514 363.128 179.892 363.189 180.299L366.005 198.841C366.092 199.417 365.924 200.003 365.544 200.445C365.164 200.887 364.61 201.141 364.027 201.141V201.141Z" fill="#141414"/></g><g id="Assets 107"><path id="SKIN_3" fill-rule="evenodd" clip-rule="evenodd" d="M335.99 243.783C336.211 239.904 332.673 238.417 329.191 239.046C339.042 234.969 338.719 222.65 324.727 226.187C324.729 226.186 324.732 226.185 324.734 226.184H324.732C331.935 223.459 331.147 214.578 323.091 215.373C310.761 217.504 301.664 218.104 290.95 217.054C291.679 193.491 280.17 215.56 263.12 221.047L262.932 221.54C248.397 228.07 207.624 245.442 153.624 263.592C151.615 263.327 136.191 260.823 130.728 259.256C123.711 257.41 117.032 255.024 111.84 251.946C110.386 251.192 108.974 250.4 107.607 249.566C104.374 258.825 84.594 332.9 131.356 343.263C145.707 348.032 171.875 338.544 171.875 338.544C205.045 325.74 234.936 292.108 258.805 274.738C265.557 270.294 273.107 267.154 281.257 267.496C314.49 268.896 324.104 265.109 329.731 259.482C333.057 256.156 329.971 252.23 325.681 252.368C325.681 252.368 335.703 248.833 335.99 243.783" fill="white"/><path id="Fill 19" fill-rule="evenodd" clip-rule="evenodd" d="M337.941 242.794C337.842 240.807 336.465 238.696 334.592 237.837C340.033 233.094 338.735 223.752 330.57 223.808C333.529 219.743 330.135 213.874 325.373 213.481C322.038 213.227 318.878 214.376 315.598 214.643C307.991 215.701 300.354 216.035 292.707 215.372C292.533 203.282 289.202 201.603 279.607 209.02C276.197 211.512 273.054 214.196 269.407 216.183C259.577 221.258 249.218 225.276 238.944 229.384C212.413 239.76 174.485 254.125 147.349 262.812C147.349 262.812 133.603 267.176 126.97 269.213C125.041 269.793 125.733 272.987 127.928 272.354C170.52 259.072 224.025 240.054 264.899 222.071C270.947 219.562 276.48 215.683 281.611 211.753C283.715 210.366 285.816 208.451 288.226 208.049C289.039 210.894 289.011 214.109 289.134 217.072C289.141 217.988 289.841 218.772 290.774 218.863C301.284 219.993 311.942 219.193 322.324 217.403C328.166 216.029 330.098 221.533 324.446 224.192C318.9 226.813 312.614 228.049 306.514 228.765C305.745 228.853 305.168 229.527 305.211 230.31C305.509 232.848 309.787 231.182 311.5 231.295C316.345 230.703 321.144 229.986 325.673 227.951C328.107 227.609 333.114 226.713 333.915 229.681C334.798 233.559 330.894 236.146 327.883 237.592C321.411 239.804 314.483 240.801 307.708 241.701C305.738 241.949 306.035 244.961 308.032 244.799C315.621 244.051 323.212 243.387 330.484 240.869C333.01 240.682 334.927 242.425 333.629 244.833C332.949 246.012 331.507 247.169 329.978 248.1C323.566 252.073 315.575 251.761 308.324 253.118C306.337 253.391 306.666 256.411 308.669 256.247C314.466 255.73 320.11 255.271 325.906 254.368C327.906 254.338 330.077 255.864 328.686 257.652C319.005 268.076 295.281 265.802 281.837 265.767C271.065 265.296 260.849 270.598 252.805 277.328C224.752 300.991 185.183 342.027 144.584 342.369C131.264 342.526 116.191 338.396 109.618 325.744C95.7329 301.431 107.923 257.191 109.786 250.838C108.587 250.167 107.409 249.476 106.276 248.746C106.284 248.709 106.291 248.675 106.298 248.639C106.264 248.714 106.226 248.786 106.201 248.867C105.547 250.946 90.3699 300.097 106.141 327.723C113.289 341.51 129.683 346.577 144.329 346.335C187.471 345.517 227.296 304.293 255.548 280.082C263.913 273.771 273.856 268.677 284.586 269.893C284.586 269.892 287.501 269.98 287.501 269.98C300.227 270.109 313.716 270.588 325.538 265.048C330.238 262.641 336.578 257.071 330.965 252.118C334.177 250.358 338.414 247.22 337.941 242.794" fill="#141414"/></g><path id="Fill 21" fill-rule="evenodd" clip-rule="evenodd" d="M382.537 311.791C384.174 325.407 393.438 379.759 395.702 393.25L395.703 393.255C395.886 394.344 395.15 395.376 394.061 395.559C392.972 395.741 391.94 395.007 391.758 393.917C391.757 393.913 391.755 393.899 391.754 393.895C389.632 380.299 380.975 325.784 379.492 312.139C376.527 284.85 373.82 257.543 371.294 230.211C371.24 229.625 371.671 229.107 372.257 229.052C372.839 228.999 373.354 229.428 373.415 230.007C376.249 257.289 379.266 284.56 382.537 311.791Z" fill="#141414"/></g></g><g id="Head" transform="translate(439 92) scale(1 1)"><g id="Head/Bun 1"><path id="SKIN" fill-rule="evenodd" clip-rule="evenodd" d="M149.882 102.094C143.885 52.3538 111.153 49.4878 87.5365 53.7808C68.7135 57.2038 44.6345 72.7648 46.7665 104.073C37.3415 101.013 30.4605 106.742 29.2365 114.189C27.8495 122.64 32.2855 136.935 46.2375 134.473C49.2925 158.699 66.0495 186.607 111.579 181.938C146.05 178.402 155.34 147.368 149.882 102.094" fill="white"/><path id="Combined Shape" fill-rule="evenodd" clip-rule="evenodd" d="M48.2218 134.223C50.0038 147.852 56.1648 161.361 67.2638 169.967C80.2308 182.118 123.203 187.006 138.219 166.456C150.998 153.433 152.906 108.249 143.117 82.1546C136.341 82.9006 125.94 83.7646 116.458 83.3946C114.284 80.3254 111.939 74.4372 110.251 70.2005C109.438 68.1591 108.778 66.5011 108.363 65.7266C107.149 67.3883 108.797 76.1561 109.788 81.4324C109.982 82.462 110.15 83.3587 110.268 84.0436C97.0758 90.4936 68.8828 93.7306 53.0198 90.8096C52.8477 93.8559 53.3909 97.1587 53.8662 100.049C54.9346 106.546 55.6603 110.959 47.1488 105.69C33.7148 97.3736 26.8068 119.976 36.0728 128.937C41.1758 133.873 44.9738 134.217 48.2218 134.223ZM68.0298 20.0796C63.1798 22.1526 50.3648 27.8466 50.1838 33.2466C71.0618 15.7416 140.214 7.6086 161.314 70.6596C168.06 92.5106 172.203 170.211 170.874 177.185C159.948 179.461 143.566 181.963 128.953 181.631C128.698 180.908 128.536 180.137 128.41 179.347C110.504 187.697 84.463 186.383 69 176C69.4059 179.508 69.358 181.906 69.3227 183.671C69.2949 185.064 69.275 186.062 69.4918 186.9C54.2508 189.358 31.6008 183.212 31.6008 183.212C31.6008 183.212 -7.27916 103.685 29.5848 57.1906C20.9498 55.1986 2.86084 42.6746 15.1488 16.7706C24.6558 -3.2704 58.7758 -3.6294 68.0298 20.0796ZM43.8325 118.933C43.6189 119.964 43.4228 120.91 42.3775 120.698C39.1875 120.05 38.7805 115.497 41.6905 114.023C44.0785 112.814 44.8125 115.511 44.0495 118.022C43.9606 118.314 43.8958 118.627 43.8325 118.933Z" fill="#141414"/></g></g><g id="Face" transform="translate(499 178) scale(1 1)"><g id="Face/Normal Face 2"><path id="Normal face 2" fill-rule="evenodd" clip-rule="evenodd" d="M78.6678 13.3124C77.5278 11.8974 76.0488 10.6384 74.3148 9.74741C72.5888 8.83741 70.6498 8.37241 68.7778 8.15441C66.8968 7.94241 65.0538 7.96141 63.2758 8.13341C61.4978 8.30741 59.7718 8.58841 58.0678 8.89041C57.8938 8.92241 57.7018 8.97341 57.5288 9.03641C55.9038 9.63541 55.0728 11.4394 55.6718 13.0644C56.2718 14.6894 58.0748 15.5204 59.6998 14.9214C61.1678 14.3794 62.6468 13.9194 64.1118 13.5884C65.5758 13.2594 67.0288 13.0184 68.4248 13.0444C71.2348 13.0974 73.6308 14.1784 75.9948 15.9984L76.0218 16.0194C76.7028 16.5434 77.6788 16.5554 78.3788 15.9914C79.1978 15.3314 79.3278 14.1314 78.6678 13.3124ZM26.5348 10.7451C27.8138 10.7087 29.0491 10.6735 30.2504 10.5639C31.9014 10.4139 33.3624 11.6309 33.5124 13.2829C33.6624 14.9339 32.4454 16.3949 30.7934 16.5439C30.7254 16.5509 30.6564 16.5549 30.5884 16.5559L30.5414 16.5569C28.6041 16.5948 26.7364 16.4748 24.9549 16.3603L24.9549 16.3603C23.4912 16.2662 22.0856 16.1758 20.7474 16.1799C19.2624 16.1819 17.8524 16.3239 16.4984 16.6889C15.1454 17.0589 13.8434 17.6039 12.4334 18.2039L12.3614 18.2339C11.4994 18.6019 10.5024 18.1999 10.1354 17.3379C9.86637 16.7059 10.0124 16.0009 10.4484 15.5249C11.6784 14.1879 13.2804 13.1399 15.0244 12.4399C16.7654 11.7229 18.6144 11.3109 20.3944 11.0869C21.9192 10.8953 23.3965 10.8464 24.8169 10.7993L24.8169 10.7993L24.817 10.7993C25.0574 10.7914 25.2962 10.7835 25.5334 10.7749C25.8702 10.764 26.2039 10.7545 26.5347 10.7451L26.5348 10.7451ZM66.0818 30.3932C65.6738 27.5712 67.4098 24.9832 69.9618 24.6142C72.5128 24.2452 74.9108 26.2342 75.3188 29.0562C75.7278 31.8792 73.9908 34.4662 71.4408 34.8352C68.8888 35.2042 66.4898 33.2152 66.0818 30.3932ZM48.6647 56.9164C48.2147 56.8144 47.8807 56.7204 47.3057 56.4744C46.5957 56.1714 46.2657 55.3504 46.5697 54.6404C46.7477 54.2224 47.1067 53.9364 47.5157 53.8334L48.0587 53.7004C48.2797 53.6464 48.7597 53.6634 49.1197 53.6824L49.2238 53.6894C49.5738 53.7128 49.8236 53.7295 50.1867 53.7304C50.9187 53.7374 51.6387 53.6824 52.3197 53.5634C53.6837 53.3234 54.8547 52.7604 55.4057 52.0114C55.6897 51.6364 55.8617 51.1994 55.9297 50.6594C56.0027 50.1344 55.9627 49.4604 55.8247 48.9954C55.5757 48.0634 54.8177 47.2804 53.6557 46.5034C53.0877 46.1224 52.4497 45.7684 51.7667 45.4554L51.5137 45.3344L51.3567 45.2604C51.2017 45.1854 51.0047 45.0564 50.9157 44.9784C50.8197 44.8964 50.7227 44.8044 50.6407 44.7134L50.4757 44.5034C50.1816 44.0661 50.0961 43.8105 50.0152 43.5686C49.9984 43.5184 49.9819 43.4689 49.9637 43.4184C49.7987 42.8724 49.7167 42.4184 49.6427 41.9674C49.3707 40.1914 49.2827 38.5434 49.1977 36.8714C49.0357 33.5424 49.0307 30.2574 49.1067 26.9454C49.1247 26.1664 49.7697 25.5494 50.5487 25.5674C51.2857 25.5844 51.8787 26.1634 51.9247 26.8864L51.9257 26.9054C52.1227 30.1454 52.3497 33.4104 52.6527 36.6194C52.8167 38.2124 53.0017 39.8344 53.3067 41.2864C53.3627 41.5454 53.4267 41.7874 53.4917 41.9994C54.2557 42.3124 55.0207 42.6744 55.7797 43.1254C56.5897 43.6244 57.4147 44.2214 58.1257 45.0504C58.8487 45.8574 59.4137 46.9404 59.6617 48.0494C59.9067 49.1754 59.9107 50.1734 59.7377 51.2644C59.5637 52.3424 59.0947 53.4764 58.3417 54.3734C57.5967 55.2774 56.6387 55.9174 55.6837 56.3264C54.7197 56.7354 53.7547 56.9374 52.8127 57.0494C51.8707 57.1544 50.9467 57.1614 50.0427 57.0944C49.6217 57.0664 49.0677 57.0134 48.6647 56.9164ZM61.1112 69.5312L61.0952 69.5392C57.2432 71.4512 52.7582 71.8822 48.5372 71.3392C46.4512 71.1012 44.4252 70.5622 42.5902 69.6642C41.6692 69.2282 40.7902 68.7112 39.9862 68.1162C39.5832 67.8202 39.1982 67.5062 38.8352 67.1812C38.7863 67.1346 38.7368 67.0883 38.6874 67.042C38.5609 66.9237 38.4351 66.806 38.3222 66.6852C38.1692 66.5362 37.9802 66.3152 37.9372 66.2582C37.8892 66.1932 37.8362 66.1272 37.7812 66.0672C36.8542 65.0412 35.2702 64.9612 34.2442 65.8882C33.2182 66.8152 33.1392 68.3982 34.0662 69.4242L34.0882 69.4482C34.4272 69.8242 34.6382 70.0202 34.9082 70.2632C35.1152 70.4549 35.3256 70.6276 35.536 70.8004C35.5857 70.8413 35.6355 70.8821 35.6852 70.9232C36.2112 71.3362 36.7482 71.7192 37.3002 72.0722C38.4032 72.7812 39.5662 73.3672 40.7642 73.8452C43.1542 74.8272 45.6972 75.3262 48.2112 75.4512C50.7132 75.5762 53.1742 75.2872 55.5922 74.7232C58.0002 74.1412 60.3322 73.1982 62.4272 71.8642C62.9962 71.4992 63.2152 70.7542 62.9092 70.1362C62.5792 69.4722 61.7742 69.2012 61.1112 69.5312ZM16.7508 30.7827C17.1588 27.9607 19.5578 25.9717 22.1088 26.3407C24.6598 26.7097 26.3968 29.2967 25.9888 32.1187C25.5808 34.9417 23.1818 36.9297 20.6298 36.5617C18.0798 36.1927 16.3428 33.6047 16.7508 30.7827Z" fill="#141414"/></g></g><g id="Accessories" transform="translate(491 176) scale(103 60)"><g id="Accessories/None" stroke="none" stroke-width="1" fill="none" fill-rule="evenodd" fill-opacity="0"/></g><g id="Facial Hair" transform="translate(501 234) scale(90 60)"><g id="Facial Hair/None" stroke="none" stroke-width="1" fill="none" fill-rule="evenodd" fill-opacity="0"/></g></g></g></g></svg>