<svg width="136" height="25" viewBox="0 0 136 25" fill="none" xmlns="http://www.w3.org/2000/svg">
<g clip-path="url(#clip0_10_2)">
<path d="M13.5 25C20.9558 25 27 19.4036 27 12.5C27 5.59644 20.9558 0 13.5 0C6.04416 0 0 5.59644 0 12.5C0 19.4036 6.04416 25 13.5 25Z" fill="#FF0A0A"/>
<path d="M8.00807 23.25C7.70855 23.25 7.47814 23.1807 7.31687 23.042L5.39879 21.25L2.13286 18.242C2.00615 18.1247 1.9255 18.034 1.89094 17.97C1.86791 17.8953 1.85638 17.7727 1.85638 17.602V7.57C1.85638 7.38867 1.86791 7.266 1.89094 7.202C1.9255 7.138 2.00615 7.04732 2.13286 6.93L4.72486 4.498L7.31687 2.13C7.42055 2.03399 7.52422 1.97533 7.6279 1.95399C7.73159 1.93266 7.8583 1.922 8.00807 1.922H12.8465C13.1345 1.922 13.2785 2.05533 13.2785 2.32199V6.738C13.2785 6.834 13.2669 6.92467 13.2439 7.01C13.2324 7.08467 13.1805 7.16467 13.0884 7.25L10.8074 9.33L8.99303 11.042V14.402L11.0321 16.322L13.0884 18.178C13.1805 18.2527 13.2324 18.3327 13.2439 18.418C13.2669 18.5033 13.2785 18.594 13.2785 18.69V22.85C13.2785 23.1167 13.1345 23.25 12.8465 23.25H8.00807Z" fill="white"/>
<path d="M14.5945 21.5C14.3785 21.5 14.2705 21.4 14.2705 21.2V5.804C14.2705 5.604 14.3785 5.504 14.5945 5.504H21.7614C21.9688 5.504 22.1416 5.568 22.2798 5.696L24.8718 8.096C25.0187 8.232 25.0921 8.392 25.0921 8.576V12.716C25.0921 12.908 25.0187 13.068 24.8718 13.196L22.2798 15.596C22.1416 15.732 21.9688 15.8 21.7614 15.8H18.5862V21.2C18.5862 21.4 18.4782 21.5 18.2622 21.5H14.5945ZM19.5582 12.536C20.2753 12.536 20.7635 12.404 21.0227 12.14C21.2905 11.876 21.4244 11.376 21.4244 10.64C21.4244 9.904 21.2905 9.404 21.0227 9.14C20.7635 8.876 20.2753 8.744 19.5582 8.744C18.8497 8.744 18.3616 8.876 18.0937 9.14C17.8345 9.404 17.7049 9.904 17.7049 10.64C17.7049 11.376 17.8345 11.876 18.0937 12.14C18.3616 12.404 18.8497 12.536 19.5582 12.536Z" fill="white"/>
<path d="M34.84 18.16C33.976 18.16 33.1707 18.0267 32.424 17.76C31.6773 17.4827 31.0213 17.088 30.456 16.576C29.9013 16.064 29.4693 15.456 29.16 14.752C28.8507 14.0373 28.696 13.2533 28.696 12.4C28.696 11.5893 28.856 10.8373 29.176 10.144C29.5067 9.45067 29.9547 8.848 30.52 8.336C31.096 7.81333 31.7573 7.41333 32.504 7.136C33.2507 6.848 34.0453 6.704 34.888 6.704C35.56 6.704 36.2053 6.79467 36.824 6.976C37.4427 7.15733 38.0027 7.392 38.504 7.68C39.016 7.95733 39.4267 8.26133 39.736 8.592L38.664 9.984C38.3013 9.664 37.9173 9.38667 37.512 9.152C37.1173 8.91733 36.6907 8.736 36.232 8.608C35.7733 8.48 35.2827 8.416 34.76 8.416C34.2053 8.416 33.672 8.512 33.16 8.704C32.648 8.88533 32.184 9.152 31.768 9.504C31.3627 9.84533 31.0427 10.2667 30.808 10.768C30.5733 11.2587 30.456 11.8027 30.456 12.4C30.456 13.0507 30.5733 13.632 30.808 14.144C31.0533 14.6453 31.3893 15.0667 31.816 15.408C32.2427 15.7493 32.728 16.0107 33.272 16.192C33.8267 16.3733 34.408 16.464 35.016 16.464C35.5707 16.464 36.0773 16.3947 36.536 16.256C36.9947 16.1067 37.4053 15.92 37.768 15.696C38.1413 15.4613 38.4773 15.2267 38.776 14.992L39.608 16.416C39.3307 16.672 38.9467 16.9387 38.456 17.216C37.9653 17.4827 37.4107 17.7067 36.792 17.888C36.1733 18.0693 35.5227 18.16 34.84 18.16ZM47.5518 18.16C46.6238 18.16 45.8078 17.9733 45.1038 17.6C44.4104 17.216 43.8664 16.6933 43.4718 16.032C43.0878 15.3707 42.8958 14.624 42.8958 13.792C42.8958 12.9387 43.0984 12.1867 43.5038 11.536C43.9198 10.8747 44.4851 10.3573 45.1998 9.984C45.9144 9.61067 46.7358 9.424 47.6638 9.424C48.2291 9.424 48.7518 9.49333 49.2318 9.632C49.7224 9.77067 50.1438 9.95733 50.4958 10.192C50.8584 10.4267 51.1411 10.6827 51.3438 10.96C51.5571 11.2373 51.6691 11.5147 51.6798 11.792L51.2318 11.776V9.6H52.8958V18H51.2318V15.776L51.5678 15.824C51.5571 16.0907 51.4398 16.3627 51.2158 16.64C50.9918 16.9067 50.6931 17.1573 50.3198 17.392C49.9464 17.616 49.5198 17.8027 49.0398 17.952C48.5704 18.0907 48.0744 18.16 47.5518 18.16ZM47.9358 16.64C48.5971 16.64 49.1784 16.5173 49.6798 16.272C50.1918 16.016 50.5864 15.6747 50.8638 15.248C51.1518 14.8107 51.2958 14.3253 51.2958 13.792C51.2958 13.248 51.1518 12.7627 50.8638 12.336C50.5864 11.9093 50.1918 11.5733 49.6798 11.328C49.1784 11.0827 48.5971 10.96 47.9358 10.96C47.2851 10.96 46.7038 11.0827 46.1918 11.328C45.6904 11.5733 45.2958 11.9093 45.0078 12.336C44.7198 12.7627 44.5758 13.248 44.5758 13.792C44.5758 14.3253 44.7198 14.8107 45.0078 15.248C45.2958 15.6747 45.6904 16.016 46.1918 16.272C46.7038 16.5173 47.2851 16.64 47.9358 16.64ZM58.2676 18V6.16H59.9156V18H58.2676ZM69.0756 18.16C68.1583 18.16 67.3263 17.968 66.5796 17.584C65.8436 17.2 65.2623 16.6773 64.8356 16.016C64.409 15.3547 64.1956 14.6133 64.1956 13.792C64.1956 12.96 64.409 12.2187 64.8356 11.568C65.2623 10.9067 65.8436 10.384 66.5796 10C67.3263 9.616 68.1583 9.424 69.0756 9.424C69.993 9.424 70.841 9.57333 71.6196 9.872C72.3983 10.16 73.0063 10.56 73.4436 11.072L72.5156 12.352C72.2596 12.0853 71.9396 11.8453 71.5556 11.632C71.1823 11.408 70.7823 11.232 70.3556 11.104C69.9396 10.976 69.529 10.912 69.1236 10.912C68.4836 10.912 67.9183 11.04 67.4276 11.296C66.9476 11.5413 66.569 11.8827 66.2916 12.32C66.0143 12.7467 65.8756 13.2373 65.8756 13.792C65.8756 14.3467 66.0196 14.8427 66.3076 15.28C66.6063 15.7067 67.001 16.048 67.4916 16.304C67.993 16.5493 68.5423 16.672 69.1396 16.672C69.6303 16.672 70.0783 16.6133 70.4836 16.496C70.8996 16.3787 71.273 16.2293 71.6036 16.048C71.945 15.8667 72.2596 15.6747 72.5476 15.472L73.4436 16.704C72.921 17.0987 72.2916 17.44 71.5556 17.728C70.8196 18.016 69.993 18.16 69.0756 18.16ZM77.9749 18V9.6H79.6229V18H77.9749ZM78.7749 7.632C78.4229 7.632 78.1509 7.54133 77.9589 7.36C77.7669 7.17867 77.6709 6.92267 77.6709 6.592C77.6709 6.28267 77.7669 6.032 77.9589 5.84C78.1615 5.648 78.4335 5.552 78.7749 5.552C79.1269 5.552 79.3989 5.64267 79.5909 5.824C79.7829 6.00533 79.8789 6.26133 79.8789 6.592C79.8789 6.90133 79.7775 7.152 79.5749 7.344C79.3829 7.536 79.1162 7.632 78.7749 7.632ZM85.0124 18V6.8H91.0124C91.6524 6.8 92.239 6.95467 92.7724 7.264C93.3164 7.56267 93.7484 7.97333 94.0684 8.496C94.3884 9.01867 94.5484 9.6 94.5484 10.24C94.5484 10.9013 94.3724 11.504 94.0204 12.048C93.679 12.592 93.2257 13.024 92.6604 13.344C92.095 13.664 91.4657 13.824 90.7724 13.824H86.7404V18H85.0124ZM86.7404 12.16H90.6604C91.0337 12.16 91.375 12.0747 91.6844 11.904C92.0044 11.7227 92.255 11.488 92.4364 11.2C92.6284 10.9013 92.7244 10.5813 92.7244 10.24C92.7244 9.90933 92.6284 9.61067 92.4364 9.344C92.255 9.07733 92.0044 8.864 91.6844 8.704C91.375 8.544 91.0337 8.464 90.6604 8.464H86.7404V12.16ZM99.1765 18V9.6H100.841V12.544L100.441 12.288C100.601 11.7653 100.862 11.2853 101.225 10.848C101.587 10.4107 102.009 10.064 102.489 9.808C102.969 9.552 103.465 9.424 103.977 9.424C104.307 9.424 104.627 9.46133 104.937 9.536C105.257 9.6 105.507 9.69067 105.689 9.808L105.257 11.536C105.054 11.4187 104.803 11.328 104.505 11.264C104.217 11.2 103.945 11.168 103.689 11.168C103.262 11.168 102.873 11.2427 102.521 11.392C102.169 11.5307 101.865 11.7227 101.609 11.968C101.363 12.2133 101.171 12.4853 101.033 12.784C100.905 13.0827 100.841 13.392 100.841 13.712V18H99.1765ZM113.662 18.16C112.627 18.16 111.705 17.9787 110.894 17.616C110.083 17.2427 109.449 16.736 108.99 16.096C108.542 15.4453 108.318 14.7093 108.318 13.888C108.318 13.1947 108.451 12.576 108.718 12.032C108.985 11.4773 109.358 11.008 109.838 10.624C110.318 10.24 110.873 9.94133 111.502 9.728C112.142 9.51467 112.814 9.408 113.518 9.408C114.179 9.408 114.798 9.50933 115.374 9.712C115.95 9.91467 116.457 10.1973 116.894 10.56C117.331 10.9227 117.667 11.3547 117.902 11.856C118.147 12.3467 118.265 12.8907 118.254 13.488L118.238 14.304H109.758L109.39 12.992H116.814L116.574 13.152V12.768C116.521 12.4053 116.345 12.0853 116.046 11.808C115.747 11.5307 115.374 11.3173 114.926 11.168C114.489 11.008 114.019 10.928 113.518 10.928C112.835 10.928 112.222 11.024 111.678 11.216C111.145 11.408 110.723 11.712 110.414 12.128C110.105 12.544 109.95 13.0933 109.95 13.776C109.95 14.352 110.115 14.8587 110.446 15.296C110.787 15.7227 111.257 16.0533 111.854 16.288C112.462 16.5227 113.155 16.64 113.934 16.64C114.681 16.64 115.305 16.5387 115.806 16.336C116.318 16.1333 116.755 15.9093 117.118 15.664L117.87 16.88C117.571 17.1147 117.193 17.328 116.734 17.52C116.286 17.712 115.795 17.8667 115.262 17.984C114.739 18.1013 114.206 18.16 113.662 18.16ZM122.958 21.52V9.584H124.622V11.52L124.366 11.376C124.44 11.0773 124.659 10.784 125.022 10.496C125.384 10.1973 125.838 9.952 126.382 9.76C126.936 9.55733 127.523 9.456 128.142 9.456C129.08 9.456 129.902 9.64267 130.606 10.016C131.32 10.3787 131.875 10.8853 132.27 11.536C132.664 12.1867 132.862 12.9387 132.862 13.792C132.862 14.6347 132.664 15.3867 132.27 16.048C131.875 16.6987 131.326 17.2107 130.622 17.584C129.918 17.9573 129.107 18.144 128.19 18.144C127.518 18.144 126.894 18.0373 126.318 17.824C125.742 17.6107 125.262 17.3493 124.878 17.04C124.504 16.72 124.28 16.416 124.206 16.128L124.622 15.904V21.52H122.958ZM127.918 16.624C128.579 16.624 129.16 16.5013 129.662 16.256C130.163 16 130.558 15.6587 130.846 15.232C131.134 14.8053 131.278 14.3253 131.278 13.792C131.278 13.2587 131.134 12.7787 130.846 12.352C130.568 11.9253 130.174 11.5893 129.662 11.344C129.16 11.0987 128.579 10.976 127.918 10.976C127.267 10.976 126.686 11.0987 126.174 11.344C125.662 11.5893 125.262 11.9253 124.974 12.352C124.686 12.7787 124.542 13.2587 124.542 13.792C124.542 14.3253 124.686 14.8053 124.974 15.232C125.262 15.6587 125.662 16 126.174 16.256C126.686 16.5013 127.267 16.624 127.918 16.624Z" fill="#84C754"/>
<path d="M131.107 5.19824V4.81738H132.898V5.19824H132.233V7H131.773V5.19824H131.107ZM133.197 4.81738H133.766L134.366 6.28369H134.391L134.993 4.81738H135.566V7H135.113V5.5791H135.097L134.53 6.98975H134.224L133.663 5.57617H133.644V7H133.197V4.81738Z" fill="#84C754"/>
</g>
<defs>
<clipPath id="clip0_10_2">
<rect width="136" height="25" fill="white"/>
</clipPath>
</defs>
</svg>
