<svg width="1920" height="500" viewBox="0 0 1920 500" fill="none" xmlns="http://www.w3.org/2000/svg">
<g clip-path="url(#clip0_10_60)">
<path d="M1455.28 268.526L1493.73 266.269L1503.34 275.838L1464.67 279.904L1455.28 268.526Z" fill="#ED9DA0"/>
<path d="M1188.95 498.728C1188.95 498.728 1158.45 474.432 1249.95 456.21L1188.95 498.728Z" fill="#E6E6E6"/>
<path d="M1221.47 498.286C1221.47 498.286 1212.16 480.972 1140.15 481.118L1221.47 498.286Z" fill="#E6E6E6"/>
<path d="M1839.41 498.728C1839.41 498.728 1799.1 466.629 1920 442.556L1839.41 498.728Z" fill="#E6E6E6"/>
<path d="M1789.85 498.144C1789.85 498.144 1777.56 475.266 1682.41 475.462Z" fill="#E6E6E6"/>
<path d="M1173.69 142.485L1110.56 131.634L1115.29 130.821L1178.41 141.673L1173.69 142.485Z" fill="#5E56E8"/>
<path d="M1118.62 142.485L1113.9 141.673L1177.03 130.821L1181.75 131.634L1118.62 142.485Z" fill="#5E56E8"/>
<path d="M824.84 85.9604L822.92 87.1731L834.162 89.0373L836.082 87.8246L824.84 85.9604Z" fill="#CBCBCB"/>
<path d="M1057.92 126.144L1035.54 122.434L1037.46 121.221L1059.84 124.931L1057.92 126.144ZM1013.17 118.723L990.788 115.012L992.708 113.799L1015.09 117.511L1013.17 118.723ZM968.413 111.302L946.038 107.591L947.957 106.378L970.332 110.089L968.413 111.302ZM923.66 103.881L901.282 100.17L903.201 98.9574L925.579 102.668L923.66 103.881ZM878.907 96.4597L856.531 92.7493L858.451 91.5365L880.826 95.247L878.907 96.4597Z" fill="#CBCBCB"/>
<path d="M1082.22 128.641L1080.3 129.854L1091.55 131.718L1093.47 130.505L1082.22 128.641Z" fill="#CBCBCB"/>
<path d="M233.366 177.183C233.366 177.609 233.323 178.031 233.239 178.449C232.761 180.863 230.876 183.226 227.684 185.413C227.66 185.432 227.632 185.449 227.605 185.467C227.456 185.568 227.303 185.669 227.147 185.769C226.198 186.388 225.144 186.989 223.992 187.571C218.73 190.24 211.517 192.448 202.991 194.001C194.465 195.553 184.888 196.402 175.107 196.473L175.697 207.446L183.375 206.136L184.747 206.98L175.743 208.514L176.844 228.894L176.856 229.166L170.911 229.595L170.923 229.321L172.794 196.475C164.922 196.438 157.15 195.896 149.93 194.879C142.71 193.863 136.187 192.392 130.738 190.553C130.363 190.428 129.992 190.298 129.629 190.17L129.589 190.155C125.049 188.554 121.377 186.717 118.727 184.721C118.785 184.742 118.847 184.762 118.905 184.783C112.918 180.254 112.512 175.154 117.769 170.531C123.026 165.907 133.548 162.109 147.18 159.915L147.804 159.816C161.287 157.715 176.719 157.329 191.04 158.736C205.361 160.143 217.526 163.239 225.124 167.412C225.487 167.609 225.844 167.811 226.175 168.014C230.895 170.83 233.361 173.983 233.349 177.187L233.366 177.183Z" fill="#E5E5E5"/>
<path d="M225.343 185.476C268.503 185.476 303.491 174.154 303.491 160.187C303.491 146.22 268.503 134.897 225.343 134.897C182.182 134.897 147.194 146.22 147.194 160.187C147.194 174.154 182.182 185.476 225.343 185.476Z" fill="#5E56E8"/>
<path opacity="0.2" d="M167.641 143.296C160.351 148.814 159.363 154.991 164.851 160.723C170.34 166.455 181.948 171.369 197.601 174.587C213.255 177.804 231.934 179.116 250.3 178.287C268.667 177.458 285.524 174.543 297.86 170.062C293.407 173.433 286.742 176.45 278.327 178.905C269.912 181.36 259.949 183.194 249.127 184.279C238.305 185.364 226.884 185.675 215.654 185.189C204.425 184.704 193.655 183.435 184.092 181.469C174.528 179.504 166.4 176.889 160.27 173.805C154.14 170.722 150.154 167.245 148.589 163.614C147.024 159.983 147.918 156.285 151.207 152.776C154.497 149.268 160.104 146.033 167.641 143.296Z" fill="black"/>
<path d="M229.573 230.637L221.59 229.913L221.607 229.635L224.006 187.568L224.126 185.472V185.411L224.544 178.061L225.148 167.409L225.559 160.188H225.779L226.199 168.011L226.746 178.193L227.137 185.414V185.467L227.154 185.766L227.912 199.848L227.991 201.246L229.558 230.353L229.573 230.637Z" fill="#3F3D56"/>
<path d="M237.988 198.136L225.069 200.336L226.87 201.443L239.788 199.242L237.988 198.136Z" fill="#3F3D56"/>
<path d="M1238.39 78.3406C1139.75 76.4544 1040.82 76.9475 942.405 79.8158C894.972 81.2032 846.785 82.7017 800.228 86.0504C762.727 88.7476 719.205 93.3052 695.841 103.922C690.948 106.061 687.65 108.538 686.206 111.158C684.762 113.778 685.211 116.471 687.518 119.025C693.089 125.081 706.952 130.116 721.707 134.061C755.676 143.145 797.824 148.425 835.473 155.645C904.214 168.819 967.125 186.574 1007.5 209.129C1025.27 219.054 1042.17 232.252 1022.37 243.188C1002.99 253.903 959.72 257.594 924.432 259.337C880.202 261.519 834.643 260.928 790.228 259.706C741.535 258.236 693.114 255.941 645.164 252.83C551.226 246.993 458.145 239.568 362.904 236.191C315.149 234.373 266.992 233.923 218.992 234.844C175.642 235.791 131.921 238.01 91.198 243.068C59.8158 246.965 26.3654 252.863 9.41472 262.698C-6.92419 272.179 -0.551789 283.111 17.2411 291.858C38.6496 302.382 72.0304 309.595 106.733 314.866C146.249 320.867 188.517 324.758 230.835 328.065C252.298 329.742 273.877 331.259 295.458 332.769C299.959 333.083 301.884 330.846 297.378 330.53C253.855 327.486 210.208 324.433 167.768 320.028C128.494 315.951 88.3021 310.729 56.1402 302.171C30.1203 295.245 5.38158 285.13 6.9171 273.629C8.46462 262.035 38.5248 253.94 67.9877 248.957C104.809 242.73 146.642 239.697 187.634 238.111C234.57 236.419 281.905 236.211 328.966 237.49C423.977 239.829 516.878 246.834 610.041 252.941C700.546 258.876 793.875 264.372 886.625 262.849C923.386 262.246 962.777 260.541 995.237 254.536C1010.1 251.787 1023.5 247.91 1031.05 242.864C1037.86 238.063 1040.01 232.708 1037.23 227.504C1031.96 216.072 1010.98 205.472 990.045 196.37C967.1 186.49 940.481 177.562 910.79 169.789C878.204 161.302 843.068 153.895 805.912 147.68C786.207 144.322 766.223 141.094 747.447 137.206C729.452 133.479 711.681 128.991 700.687 122.939C691.177 117.705 689.433 111.73 699.339 106.421C709.358 101.051 726.619 97.306 743.639 94.5691C784.649 87.9751 832.327 86.2103 877.193 84.3982C973.533 80.5281 1070.62 78.9615 1167.68 79.711C1191.27 79.8906 1214.84 80.2066 1238.4 80.659C1243.01 80.7467 1243 78.4245 1238.4 78.3367L1238.39 78.3406Z" fill="black"/>
<path d="M1175.82 3.90988L1190.72 0.0534549C1179.14 -0.359596 1174.39 1.68392 1172.44 3.29963C1163.4 2.08454 1153.55 3.67696 1153.55 3.67696L1183.36 7.17935C1181.86 5.87952 1179.24 4.74536 1175.82 3.90988Z" fill="#3F3D56"/>
<path d="M1103.51 16.1191L1118.41 12.2626C1106.84 11.8496 1102.08 13.8931 1100.13 15.5088C1091.09 14.2937 1081.25 15.8861 1081.25 15.8861L1111.06 19.3885C1109.55 18.0887 1106.93 16.9545 1103.51 16.1191Z" fill="#3F3D56"/>
<path d="M1175.82 35.4486L1190.72 31.5922C1179.14 31.1791 1174.39 33.2226 1172.44 34.8383C1163.4 33.6232 1153.55 35.2157 1153.55 35.2157L1183.37 38.7219C1181.86 37.4221 1179.25 36.2879 1175.82 35.4525L1175.82 35.4486Z" fill="#3F3D56"/>
<path d="M952.453 41.1614C977.245 41.1614 997.343 34.6576 997.343 26.6348C997.343 18.6119 977.245 12.1081 952.453 12.1081C927.661 12.1081 907.563 18.6119 907.563 26.6348C907.563 34.6576 927.661 41.1614 952.453 41.1614Z" fill="#FF6583"/>
<path d="M1093.22 71.3987H873.002C872.726 71.3999 872.451 71.3929 872.179 71.3778L976.335 13.0002C976.971 12.6365 977.893 12.3339 979.008 12.1234C980.123 11.9128 981.392 11.8019 982.683 11.8019C983.974 11.8019 985.242 11.9128 986.357 12.1234C987.472 12.3339 988.394 12.6365 989.03 13.0002L1058.93 52.1748L1062.29 54.0491L1093.22 71.3987Z" fill="#5E56E8"/>
<path d="M1215.83 71.3995H1025.36L1062.27 54.0506L1064.93 52.8006L1113.02 30.1892C1113.87 29.8432 1114.93 29.5591 1116.15 29.3553C1117.36 29.1515 1118.69 29.0325 1120.05 29.0062C1121.42 28.9798 1122.78 29.0466 1124.06 29.2023C1125.34 29.358 1126.5 29.599 1127.47 29.9097C1127.72 29.998 1127.95 30.0913 1128.17 30.1892L1215.83 71.3995Z" fill="#5E56E8"/>
<path d="M901.642 205.29C922.515 208.666 935.231 213.125 935.231 218.016C935.231 228.552 876.318 237.093 803.647 237.093C772.051 237.093 743.066 235.477 720.393 232.786C744.486 236.683 779.457 239.136 818.395 239.136C891.066 239.136 949.98 230.596 949.98 220.06C949.96 214.105 931.129 208.789 901.642 205.29Z" fill="#F1F1F1"/>
<path d="M948.072 212.527C971.626 216.337 985.966 221.368 985.966 226.887C985.966 238.775 919.49 248.412 837.488 248.412C801.835 248.412 769.129 246.589 743.533 243.552C770.719 247.949 810.18 250.718 854.117 250.718C936.119 250.718 1002.6 241.08 1002.6 229.193C1002.59 222.477 981.345 216.474 948.072 212.527Z" fill="#F1F1F1"/>
<path d="M883.873 208.477C898.578 210.856 907.532 213.997 907.532 217.443C907.532 224.866 866.025 230.883 814.827 230.883C794.881 230.966 775.038 229.94 756.165 227.849C773.138 230.594 797.778 232.322 825.211 232.322C876.409 232.322 917.916 226.305 917.916 218.883C917.916 214.688 904.648 210.942 883.873 208.477Z" fill="#F1F1F1"/>
<path d="M677.247 207.115C677.247 207.115 680.479 222.401 773.114 222.401C865.749 222.401 893.405 207.115 893.405 207.115H677.247Z" fill="#3F3D56"/>
<path d="M808.731 167.01C795.358 163.722 778.572 162.236 761.89 162.864C776.792 164.029 789.95 166.855 799.057 170.846C808.164 174.837 812.638 179.738 811.696 184.69C810.753 189.641 804.454 194.327 793.902 197.926C783.35 201.525 769.22 203.807 753.989 204.372C768.566 205.514 783.912 204.995 797.447 202.905C810.981 200.814 821.878 197.279 828.303 192.893C834.728 188.508 836.289 183.541 832.725 178.827C829.16 174.113 820.687 169.94 808.731 167.01Z" fill="#3F3D56"/>
<path d="M778.373 160.105H772.058V208.757H778.373V160.105Z" fill="#3F3D56"/>
<path d="M1193.46 123.957L1193.43 123.938L1193.34 122.75L1213.13 113.453L1193.36 121.86L1193.3 122.112L1192.62 112.609L1209.71 102.971L1192.57 110.94L1192.75 91.2531V91.1879V91.2523L1191.62 106.768L1176.04 100.466L1191.57 108.105L1191.22 116.604L1176.89 108.309L1191.17 117.855L1190.98 122.58L1190.46 135.675L1190.42 136.653C1191.74 136.656 1193.05 136.649 1194.34 136.632L1193.44 124.054L1193.46 123.957Z" fill="#CBCBCB"/>
<path d="M1098.72 128.043L1098.69 128.025L1098.6 126.836L1118.39 117.539L1098.63 125.947L1098.56 126.199L1097.89 116.696L1114.98 107.058L1097.84 115.027L1098.02 95.3401V95.2788V95.3432L1096.88 110.859L1081.31 104.557L1096.83 112.196L1096.49 120.695L1082.16 112.4L1096.44 121.945L1096.25 126.671L1095.72 139.766L1095.69 140.744C1097.01 140.747 1098.31 140.74 1099.61 140.723L1098.71 128.145L1098.72 128.043Z" fill="#CBCBCB"/>
<path d="M1145.03 115.101L1145 115.082L1144.91 113.893L1164.7 104.597L1144.94 113.003L1144.87 113.255L1144.19 103.753L1161.28 94.1142L1144.14 102.083L1144.32 82.3966L1143.19 97.9116L1127.61 91.6095L1143.14 99.2486L1142.8 107.748L1128.46 99.4528L1142.74 108.998L1142.55 113.724L1142.03 126.818L1141.99 127.796C1143.31 127.8 1144.62 127.793 1145.91 127.775L1145.01 115.198L1145.03 115.101Z" fill="#CBCBCB"/>
<path d="M362.57 341.331C376.523 341.331 387.835 337.671 387.835 333.155C387.835 328.64 376.523 324.98 362.57 324.98C348.617 324.98 337.306 328.64 337.306 333.155C337.306 337.671 348.617 341.331 362.57 341.331Z" fill="#5E56E8"/>
<path d="M1641.05 484.069L1617.66 486.881L1573.01 459.025L1607.53 454.876L1641.05 484.069Z" fill="#ED9DA0"/>
<path d="M1655.44 490.69L1580.02 499.757L1579.66 499.446C1576.77 496.927 1577.09 494.139 1580.55 491.696C1584.01 489.252 1590.32 487.354 1598.11 486.417L1644.17 480.879L1655.44 490.69Z" fill="#4C4A68"/>
<path d="M1410.87 491.93H1385.92L1374.05 460.786H1410.87L1410.87 491.93Z" fill="#ED9DA0"/>
<path d="M1415.2 499.757H1334.75V499.428C1334.75 496.74 1338.04 494.163 1343.92 492.262C1349.79 490.362 1357.75 489.294 1366.06 489.294H1415.2V499.757Z" fill="#4C4A68"/>
<path d="M1525.12 275.932L1516.96 270.665L1447.76 281.862L1449.8 286.472L1436.57 292.07C1436.57 292.07 1414.18 296.022 1418.25 309.194L1422.33 321.707L1427.42 337.843L1391.8 377.689L1373.48 430.373L1360.25 472.854L1424.36 471.866L1483.39 402.712L1587.18 477.135L1658.41 471.212L1560.72 397.445L1548.51 366.491C1548.51 366.491 1556.65 350.025 1517.98 338.83L1524.09 332.902V325.598L1544.44 290.751L1525.12 275.932Z" fill="#4C4A68"/>
<path opacity="0.2" d="M1527.01 351.238L1482.23 402.609L1484.53 402.819L1529.31 351.448L1527.01 351.238Z" fill="black"/>
<path d="M1523.07 337.841H1423.34V341.134H1523.07V337.841Z" fill="#3F3D56"/>
<path d="M1423.35 343.11C1425.6 343.11 1427.42 341.636 1427.42 339.817C1427.42 337.999 1425.6 336.524 1423.35 336.524C1421.1 336.524 1419.28 337.999 1419.28 339.817C1419.28 341.636 1421.1 343.11 1423.35 343.11Z" fill="#3F3D56"/>
<path d="M1494.33 267.414C1520.62 262.763 1530.28 252.096 1515.91 243.589C1501.54 235.081 1468.57 231.955 1442.29 236.605C1416 241.256 1406.33 251.923 1420.7 260.43C1435.08 268.937 1468.04 272.064 1494.33 267.414Z" fill="#ED9DA0"/>
<path d="M1551.33 245.743C1577.84 245.743 1599.33 238.789 1599.33 230.212C1599.33 221.635 1577.84 214.681 1551.33 214.681C1524.83 214.681 1503.34 221.635 1503.34 230.212C1503.34 238.789 1524.83 245.743 1551.33 245.743Z" fill="#4C4A68"/>
<path d="M1612.24 228.549C1614.11 230.605 1614.65 232.764 1613.82 234.89C1612.98 237.016 1610.8 239.064 1607.41 240.904C1604.01 242.744 1599.47 244.337 1594.08 245.581C1588.69 246.826 1582.56 247.696 1576.08 248.137C1569.6 248.578 1562.9 248.58 1556.42 248.142C1549.94 247.705 1543.8 246.838 1538.4 245.596C1533.01 244.354 1528.46 242.764 1525.06 240.926C1521.65 239.088 1519.46 237.041 1518.61 234.916C1522.03 238.661 1529.67 241.852 1540.03 243.855C1550.39 245.857 1562.7 246.523 1574.51 245.72C1586.32 244.917 1596.76 242.704 1603.75 239.522C1610.74 236.34 1613.77 232.422 1612.24 228.549Z" fill="#4C4A68"/>
<path d="M1422.63 247.136C1421.23 251.151 1423.95 255.203 1430.38 258.666C1436.81 262.129 1446.59 264.809 1458.21 266.29C1469.82 267.772 1482.62 267.972 1494.63 266.861C1506.63 265.749 1517.17 263.387 1524.6 260.142C1532.03 256.896 1535.95 252.947 1535.75 248.908C1535.55 244.868 1531.23 240.963 1523.47 237.797C1515.71 234.632 1504.95 232.383 1492.84 231.398C1480.73 230.414 1467.95 230.75 1456.5 232.353C1447.02 229.88 1435.27 230.645 1425.71 233.257C1414.92 236.207 1411.7 238.236 1403.33 243.09C1411.56 243.465 1414.4 246.762 1422.63 247.136Z" fill="#4C4A68"/>
<path d="M1622.04 299.928C1621.44 305.13 1620.23 315.372 1620.23 315.894C1620.23 316.445 1596.24 332.52 1585.88 339.438C1585.14 339.926 1584.48 340.37 1583.89 340.758C1583.09 341.295 1581.83 341.746 1580.26 342.058C1578.69 342.37 1576.88 342.53 1575.04 342.519L1529.74 342.256C1527.26 342.242 1524.88 341.917 1523.12 341.351C1521.35 340.784 1520.33 340.019 1520.26 339.215L1515.21 274.73C1515.19 274.517 1515.31 274.306 1515.55 274.108C1515.79 273.91 1516.15 273.729 1516.61 273.577C1517.06 273.424 1517.61 273.303 1518.22 273.22C1518.82 273.138 1519.47 273.095 1520.13 273.095H1578.54C1581.01 273.095 1583.43 273.321 1585.52 273.745C1587.61 274.169 1589.29 274.776 1590.36 275.495L1618.39 294.264C1621.02 296.028 1622.28 297.974 1622.05 299.931L1622.04 299.928Z" fill="#5E56E8"/>
<path d="M1519.47 334.791C1507.85 332.513 1497.41 329.657 1488.52 326.329C1467.88 318.817 1455.33 309.342 1452.75 299.325C1450.45 290.755 1455.7 284.385 1468.37 280.391C1484.47 275.315 1506.39 276.052 1507.31 276.086L1508.3 276.122L1523.15 280.187L1518.95 281.794L1505.67 278.157C1501.6 278.091 1485 278.079 1472.87 281.916C1461.71 285.449 1457.12 291.245 1459.24 299.143C1461.7 308.68 1473.62 317.704 1493.23 324.868C1501.69 328.034 1511.6 330.76 1522.62 332.949L1519.47 334.791Z" fill="#5E56E8"/>
<path d="M1603.78 310.299L1524.61 315.554L1525.04 316.242L1604.22 310.987L1603.78 310.299Z" fill="#3F3D56"/>
<path d="M1551.59 273.086L1549.43 273.115L1554.6 313.86L1556.76 313.831L1551.59 273.086Z" fill="#3F3D56"/>
<path d="M1622.05 299.931C1621.44 305.133 1620.24 315.375 1620.24 315.897C1620.24 316.448 1596.24 332.523 1585.88 339.441L1605.2 303.142C1605.95 301.745 1607.83 300.438 1610.65 299.354C1613.47 298.269 1617.13 297.447 1621.26 296.971C1621.91 297.943 1622.17 298.938 1622.05 299.931Z" fill="#3F3D56"/>
<path d="M1503.35 376.006C1505.06 375.292 1506.27 374.466 1506.89 373.586C1507.5 372.706 1507.52 371.792 1506.93 370.91C1506.33 370.027 1505.15 369.198 1503.46 368.479C1501.77 367.761 1499.62 367.171 1497.15 366.752L1501.07 352.699L1475.26 349.843L1470.57 369.719C1468.69 371.108 1468.44 372.672 1469.88 374.116C1471.31 375.56 1474.33 376.785 1478.36 377.558C1482.39 378.332 1487.16 378.601 1491.76 378.316C1496.37 378.03 1500.49 377.209 1503.35 376.008L1503.35 376.006Z" fill="#ED9DA0"/>
<path d="M1506.73 362.405L1460.99 361.869L1462.92 290.489C1462.89 288.469 1464.82 286.497 1468.44 284.852C1472.06 283.206 1477.18 281.97 1483.09 281.318C1488.61 280.725 1494.58 280.723 1500.1 281.314C1506.37 281.999 1511.75 283.341 1515.4 285.126C1519.05 286.912 1520.76 289.04 1520.26 291.174L1506.73 362.405Z" fill="#CBCBCB"/>
<path d="M1907.98 500H996.705C996.103 499.985 995.54 499.897 995.13 499.753C994.719 499.61 994.491 499.421 994.491 499.226C994.491 499.03 994.719 498.842 995.13 498.699C995.54 498.555 996.103 498.467 996.705 498.452H1907.98C1908.31 498.444 1908.64 498.457 1908.96 498.493C1909.27 498.528 1909.55 498.583 1909.8 498.656C1910.04 498.729 1910.23 498.817 1910.37 498.915C1910.5 499.013 1910.57 499.119 1910.57 499.226C1910.57 499.333 1910.5 499.439 1910.37 499.537C1910.23 499.635 1910.04 499.723 1909.8 499.796C1909.55 499.868 1909.27 499.924 1908.96 499.959C1908.64 499.994 1908.31 500.008 1907.98 500Z" fill="#CBCBCB"/>
</g>
<defs>
<clipPath id="clip0_10_60">
<rect width="1920" height="500" fill="white"/>
</clipPath>
</defs>
</svg>
